G04*
G04 #@! TF.GenerationSoftware,Altium Limited,Altium Designer,25.4.2 (15)*
G04*
G04 Layer_Color=255*
%FSTAX25Y25*%
%MOIN*%
G70*
G04*
G04 #@! TF.SameCoordinates,9F79833E-919C-48C8-8BE8-C58A611C57C3*
G04*
G04*
G04 #@! TF.FilePolarity,Positive*
G04*
G01*
G75*
%ADD57C,0.06299*%
G04:AMPARAMS|DCode=58|XSize=62.99mil|YSize=62.99mil|CornerRadius=15.75mil|HoleSize=0mil|Usage=FLASHONLY|Rotation=180.000|XOffset=0mil|YOffset=0mil|HoleType=Round|Shape=RoundedRectangle|*
%AMROUNDEDRECTD58*
21,1,0.06299,0.03150,0,0,180.0*
21,1,0.03150,0.06299,0,0,180.0*
1,1,0.03150,-0.01575,0.01575*
1,1,0.03150,0.01575,0.01575*
1,1,0.03150,0.01575,-0.01575*
1,1,0.03150,-0.01575,-0.01575*
%
%ADD58ROUNDEDRECTD58*%
%ADD59O,0.07087X0.03937*%
%ADD60O,0.08268X0.03937*%
%ADD61C,0.02559*%
D57*
X-02032Y-01045D02*
D03*
X-01932D02*
D03*
X-01832D02*
D03*
X-01732D02*
D03*
X-01632D02*
D03*
X-01432D02*
D03*
X-01332D02*
D03*
X-00932D02*
D03*
X-00632D02*
D03*
X-00432D02*
D03*
X-00232D02*
D03*
X-00332D02*
D03*
X-00532D02*
D03*
X-00732D02*
D03*
X-00832D02*
D03*
X-01032D02*
D03*
X-01132D02*
D03*
X-01232D02*
D03*
X-01532D02*
D03*
X-02027Y0002D02*
D03*
X-01927D02*
D03*
X-01827D02*
D03*
X-01727D02*
D03*
X-01627D02*
D03*
X-01427D02*
D03*
X-01327D02*
D03*
X-00927D02*
D03*
X-00627D02*
D03*
X-00427D02*
D03*
X-00227D02*
D03*
X-00327D02*
D03*
X-00527D02*
D03*
X-00727D02*
D03*
X-00827D02*
D03*
X-01027D02*
D03*
X-01127D02*
D03*
X-01227D02*
D03*
X-01527D02*
D03*
D58*
X-00132Y-01045D02*
D03*
X-00127Y0002D02*
D03*
D59*
X-0210208Y-0066008D02*
D03*
Y-0031992D02*
D03*
D60*
X-0193751Y-0066008D02*
D03*
Y-0031992D02*
D03*
D61*
X-019572Y-0037622D02*
D03*
Y-0060378D02*
D03*
M02*
