M48
;Layer_Color=9474304
;FILE_FORMAT=2:4
INCH,LZ
;TYPE=PLATED
T01F00S00C0.0080
T02F00S00C0.0100
T03F00S00C0.0118
T05F00S00C0.0433
T06F00S00C0.1260
;TYPE=NON_PLATED
T07F00S00C0.0256
%
T01
X06433Y03004
X06421Y03085
X059287Y03074
X05805Y0312
X0598Y02889
X060332
X055439Y029046
X055431Y029678
X05405Y03055
X05065Y03013
X049274Y028776
X04879Y02839
X04816Y0331
Y03349
X04882Y03613
X05095Y03634
X05119Y03757
X05134Y03229
X05104Y03172
X05083Y03178
X05164Y03166
X051845Y031796
X0523Y03226
X052Y03277
X05065Y03262
X05475Y03125
X05653Y03178
X05805Y0317
Y0322
Y0327
X058Y03334
X05805Y0337
Y0342
Y0347
X06415Y03145
T02
X05836Y0358
X065264Y035903
T03
X062328Y033373
Y033727
X062623Y03355
X0628Y033373
Y033727
X062977Y03355
Y033078
X062623
Y034022
X062977
X063272Y033727
Y033373
T05
X06345Y02765
X06445
X06545
X06645
X06245
X06145
X06045
X05945
X05845
X05745
X05645
X05545
X05445
X05345
X05245
X05145
X05045
X04945
X04845
X04745
X0475Y0383
X0485
X0495
X0505
X0515
X0525
X0535
X0545
X0555
X0565
X0575
X0585
X0595
X0605
X0615
X0625
X0635
X0645
X0655
X0665
T06
X06777Y02796
X04605
X04605Y0381
X06777
T07
X048198Y032062
Y034338
M30
