G04*
G04 #@! TF.GenerationSoftware,Altium Limited,Altium Designer,25.4.2 (15)*
G04*
G04 Layer_Color=8421504*
%FSTAX25Y25*%
%MOIN*%
G70*
G04*
G04 #@! TF.SameCoordinates,9F79833E-919C-48C8-8BE8-C58A611C57C3*
G04*
G04*
G04 #@! TF.FilePolarity,Positive*
G04*
G01*
G75*
G04:AMPARAMS|DCode=15|XSize=31.5mil|YSize=39.37mil|CornerRadius=3.94mil|HoleSize=0mil|Usage=FLASHONLY|Rotation=0.000|XOffset=0mil|YOffset=0mil|HoleType=Round|Shape=RoundedRectangle|*
%AMROUNDEDRECTD15*
21,1,0.03150,0.03150,0,0,0.0*
21,1,0.02362,0.03937,0,0,0.0*
1,1,0.00787,0.01181,-0.01575*
1,1,0.00787,-0.01181,-0.01575*
1,1,0.00787,-0.01181,0.01575*
1,1,0.00787,0.01181,0.01575*
%
%ADD15ROUNDEDRECTD15*%
G04:AMPARAMS|DCode=16|XSize=31.5mil|YSize=39.37mil|CornerRadius=3.94mil|HoleSize=0mil|Usage=FLASHONLY|Rotation=90.000|XOffset=0mil|YOffset=0mil|HoleType=Round|Shape=RoundedRectangle|*
%AMROUNDEDRECTD16*
21,1,0.03150,0.03150,0,0,90.0*
21,1,0.02362,0.03937,0,0,90.0*
1,1,0.00787,0.01575,0.01181*
1,1,0.00787,0.01575,-0.01181*
1,1,0.00787,-0.01575,-0.01181*
1,1,0.00787,-0.01575,0.01181*
%
%ADD16ROUNDEDRECTD16*%
G04:AMPARAMS|DCode=17|XSize=78.74mil|YSize=86.61mil|CornerRadius=9.84mil|HoleSize=0mil|Usage=FLASHONLY|Rotation=0.000|XOffset=0mil|YOffset=0mil|HoleType=Round|Shape=RoundedRectangle|*
%AMROUNDEDRECTD17*
21,1,0.07874,0.06693,0,0,0.0*
21,1,0.05906,0.08661,0,0,0.0*
1,1,0.01968,0.02953,-0.03347*
1,1,0.01968,-0.02953,-0.03347*
1,1,0.01968,-0.02953,0.03347*
1,1,0.01968,0.02953,0.03347*
%
%ADD17ROUNDEDRECTD17*%
G04:AMPARAMS|DCode=18|XSize=11.81mil|YSize=33.47mil|CornerRadius=1.48mil|HoleSize=0mil|Usage=FLASHONLY|Rotation=0.000|XOffset=0mil|YOffset=0mil|HoleType=Round|Shape=RoundedRectangle|*
%AMROUNDEDRECTD18*
21,1,0.01181,0.03051,0,0,0.0*
21,1,0.00886,0.03347,0,0,0.0*
1,1,0.00295,0.00443,-0.01526*
1,1,0.00295,-0.00443,-0.01526*
1,1,0.00295,-0.00443,0.01526*
1,1,0.00295,0.00443,0.01526*
%
%ADD18ROUNDEDRECTD18*%
G04:AMPARAMS|DCode=19|XSize=11.81mil|YSize=33.47mil|CornerRadius=1.48mil|HoleSize=0mil|Usage=FLASHONLY|Rotation=270.000|XOffset=0mil|YOffset=0mil|HoleType=Round|Shape=RoundedRectangle|*
%AMROUNDEDRECTD19*
21,1,0.01181,0.03051,0,0,270.0*
21,1,0.00886,0.03347,0,0,270.0*
1,1,0.00295,-0.01526,-0.00443*
1,1,0.00295,-0.01526,0.00443*
1,1,0.00295,0.01526,0.00443*
1,1,0.00295,0.01526,-0.00443*
%
%ADD19ROUNDEDRECTD19*%
G04:AMPARAMS|DCode=20|XSize=78.74mil|YSize=78.74mil|CornerRadius=9.84mil|HoleSize=0mil|Usage=FLASHONLY|Rotation=270.000|XOffset=0mil|YOffset=0mil|HoleType=Round|Shape=RoundedRectangle|*
%AMROUNDEDRECTD20*
21,1,0.07874,0.05906,0,0,270.0*
21,1,0.05906,0.07874,0,0,270.0*
1,1,0.01968,-0.02953,-0.02953*
1,1,0.01968,-0.02953,0.02953*
1,1,0.01968,0.02953,0.02953*
1,1,0.01968,0.02953,-0.02953*
%
%ADD20ROUNDEDRECTD20*%
G04:AMPARAMS|DCode=21|XSize=31.5mil|YSize=49.21mil|CornerRadius=3.94mil|HoleSize=0mil|Usage=FLASHONLY|Rotation=90.000|XOffset=0mil|YOffset=0mil|HoleType=Round|Shape=RoundedRectangle|*
%AMROUNDEDRECTD21*
21,1,0.03150,0.04134,0,0,90.0*
21,1,0.02362,0.04921,0,0,90.0*
1,1,0.00787,0.02067,0.01181*
1,1,0.00787,0.02067,-0.01181*
1,1,0.00787,-0.02067,-0.01181*
1,1,0.00787,-0.02067,0.01181*
%
%ADD21ROUNDEDRECTD21*%
G04:AMPARAMS|DCode=22|XSize=23.62mil|YSize=31.5mil|CornerRadius=2.95mil|HoleSize=0mil|Usage=FLASHONLY|Rotation=90.000|XOffset=0mil|YOffset=0mil|HoleType=Round|Shape=RoundedRectangle|*
%AMROUNDEDRECTD22*
21,1,0.02362,0.02559,0,0,90.0*
21,1,0.01772,0.03150,0,0,90.0*
1,1,0.00591,0.01280,0.00886*
1,1,0.00591,0.01280,-0.00886*
1,1,0.00591,-0.01280,-0.00886*
1,1,0.00591,-0.01280,0.00886*
%
%ADD22ROUNDEDRECTD22*%
G04:AMPARAMS|DCode=23|XSize=141.73mil|YSize=86.61mil|CornerRadius=10.83mil|HoleSize=0mil|Usage=FLASHONLY|Rotation=90.000|XOffset=0mil|YOffset=0mil|HoleType=Round|Shape=RoundedRectangle|*
%AMROUNDEDRECTD23*
21,1,0.14173,0.06496,0,0,90.0*
21,1,0.12008,0.08661,0,0,90.0*
1,1,0.02165,0.03248,0.06004*
1,1,0.02165,0.03248,-0.06004*
1,1,0.02165,-0.03248,-0.06004*
1,1,0.02165,-0.03248,0.06004*
%
%ADD23ROUNDEDRECTD23*%
G04:AMPARAMS|DCode=24|XSize=47.24mil|YSize=86.61mil|CornerRadius=5.91mil|HoleSize=0mil|Usage=FLASHONLY|Rotation=90.000|XOffset=0mil|YOffset=0mil|HoleType=Round|Shape=RoundedRectangle|*
%AMROUNDEDRECTD24*
21,1,0.04724,0.07480,0,0,90.0*
21,1,0.03543,0.08661,0,0,90.0*
1,1,0.01181,0.03740,0.01772*
1,1,0.01181,0.03740,-0.01772*
1,1,0.01181,-0.03740,-0.01772*
1,1,0.01181,-0.03740,0.01772*
%
%ADD24ROUNDEDRECTD24*%
%ADD25R,0.14567X0.14567*%
G04:AMPARAMS|DCode=26|XSize=78.74mil|YSize=39.37mil|CornerRadius=4.92mil|HoleSize=0mil|Usage=FLASHONLY|Rotation=270.000|XOffset=0mil|YOffset=0mil|HoleType=Round|Shape=RoundedRectangle|*
%AMROUNDEDRECTD26*
21,1,0.07874,0.02953,0,0,270.0*
21,1,0.06890,0.03937,0,0,270.0*
1,1,0.00984,-0.01476,-0.03445*
1,1,0.00984,-0.01476,0.03445*
1,1,0.00984,0.01476,0.03445*
1,1,0.00984,0.01476,-0.03445*
%
%ADD26ROUNDEDRECTD26*%
%ADD27R,0.03937X0.07874*%
G04:AMPARAMS|DCode=28|XSize=39.37mil|YSize=78.74mil|CornerRadius=4.92mil|HoleSize=0mil|Usage=FLASHONLY|Rotation=270.000|XOffset=0mil|YOffset=0mil|HoleType=Round|Shape=RoundedRectangle|*
%AMROUNDEDRECTD28*
21,1,0.03937,0.06890,0,0,270.0*
21,1,0.02953,0.07874,0,0,270.0*
1,1,0.00984,-0.03445,-0.01476*
1,1,0.00984,-0.03445,0.01476*
1,1,0.00984,0.03445,0.01476*
1,1,0.00984,0.03445,-0.01476*
%
%ADD28ROUNDEDRECTD28*%
G04:AMPARAMS|DCode=29|XSize=23.62mil|YSize=47.24mil|CornerRadius=5.91mil|HoleSize=0mil|Usage=FLASHONLY|Rotation=270.000|XOffset=0mil|YOffset=0mil|HoleType=Round|Shape=RoundedRectangle|*
%AMROUNDEDRECTD29*
21,1,0.02362,0.03543,0,0,270.0*
21,1,0.01181,0.04724,0,0,270.0*
1,1,0.01181,-0.01772,-0.00591*
1,1,0.01181,-0.01772,0.00591*
1,1,0.01181,0.01772,0.00591*
1,1,0.01181,0.01772,-0.00591*
%
%ADD29ROUNDEDRECTD29*%
G04:AMPARAMS|DCode=30|XSize=11.81mil|YSize=47.24mil|CornerRadius=2.95mil|HoleSize=0mil|Usage=FLASHONLY|Rotation=270.000|XOffset=0mil|YOffset=0mil|HoleType=Round|Shape=RoundedRectangle|*
%AMROUNDEDRECTD30*
21,1,0.01181,0.04134,0,0,270.0*
21,1,0.00591,0.04724,0,0,270.0*
1,1,0.00591,-0.02067,-0.00295*
1,1,0.00591,-0.02067,0.00295*
1,1,0.00591,0.02067,0.00295*
1,1,0.00591,0.02067,-0.00295*
%
%ADD30ROUNDEDRECTD30*%
G04:AMPARAMS|DCode=31|XSize=41.34mil|YSize=25.59mil|CornerRadius=3.2mil|HoleSize=0mil|Usage=FLASHONLY|Rotation=0.000|XOffset=0mil|YOffset=0mil|HoleType=Round|Shape=RoundedRectangle|*
%AMROUNDEDRECTD31*
21,1,0.04134,0.01919,0,0,0.0*
21,1,0.03494,0.02559,0,0,0.0*
1,1,0.00640,0.01747,-0.00960*
1,1,0.00640,-0.01747,-0.00960*
1,1,0.00640,-0.01747,0.00960*
1,1,0.00640,0.01747,0.00960*
%
%ADD31ROUNDEDRECTD31*%
D15*
X-012705Y-0065D02*
D03*
X-013335D02*
D03*
X-018485Y-00775D02*
D03*
X-017855D02*
D03*
Y-00895D02*
D03*
X-018485D02*
D03*
X-0184653Y-00835D02*
D03*
X-0178747D02*
D03*
X-011935Y-00905D02*
D03*
X-011305D02*
D03*
X-011355Y-0057D02*
D03*
X-011985D02*
D03*
X-01272Y-00785D02*
D03*
X-0133499D02*
D03*
X-012705Y-00715D02*
D03*
X-013335D02*
D03*
X-018515Y-00248D02*
D03*
X-017885D02*
D03*
X-0184953Y-00185D02*
D03*
X-0179047D02*
D03*
X-017885Y-00125D02*
D03*
X-018515D02*
D03*
D16*
X-01361Y-0043447D02*
D03*
Y-0049353D02*
D03*
X-01077Y-0022953D02*
D03*
Y-0017047D02*
D03*
X-01508Y-0033547D02*
D03*
Y-0039453D02*
D03*
X-01568Y-0033547D02*
D03*
Y-0039453D02*
D03*
X-01822Y-004315D02*
D03*
Y-003685D02*
D03*
Y-005985D02*
D03*
Y-006615D02*
D03*
X-01702Y-0067094D02*
D03*
Y-0073D02*
D03*
X-01076Y-00293D02*
D03*
Y-0035206D02*
D03*
X-01607Y-0055953D02*
D03*
Y-0050047D02*
D03*
X-01547Y-0055953D02*
D03*
Y-0050047D02*
D03*
X-01292Y-004965D02*
D03*
Y-004335D02*
D03*
X-01013Y-0023D02*
D03*
Y-0017095D02*
D03*
D17*
X-01712Y-0044374D02*
D03*
Y-0028626D02*
D03*
D18*
X-0146794Y-0066299D02*
D03*
X-0148763D02*
D03*
X-0150732D02*
D03*
X-01527D02*
D03*
X-0154668D02*
D03*
X-0156637D02*
D03*
X-0158606D02*
D03*
Y-0085D02*
D03*
X-0156637D02*
D03*
X-0154668D02*
D03*
X-01527D02*
D03*
X-0150732D02*
D03*
X-0148763D02*
D03*
X-0146794D02*
D03*
D19*
X-016205Y-0069744D02*
D03*
Y-0071713D02*
D03*
Y-0073681D02*
D03*
Y-007565D02*
D03*
Y-0077618D02*
D03*
Y-0079587D02*
D03*
Y-0081555D02*
D03*
X-014335D02*
D03*
Y-0079587D02*
D03*
Y-0077618D02*
D03*
Y-007565D02*
D03*
Y-0073681D02*
D03*
Y-0071713D02*
D03*
Y-0069744D02*
D03*
D20*
X-01527Y-007565D02*
D03*
D21*
X-01202Y-00505D02*
D03*
Y-00425D02*
D03*
D22*
X-0112326Y-006726D02*
D03*
X-01202Y-006352D02*
D03*
Y-0071D02*
D03*
X-01122Y-00805D02*
D03*
X-0120074Y-007676D02*
D03*
Y-008424D02*
D03*
D23*
X-0117259Y-0024445D02*
D03*
D24*
X-01397Y-00335D02*
D03*
Y-0024445D02*
D03*
Y-001539D02*
D03*
D25*
X-00497Y-00455D02*
D03*
D26*
X-0019385Y-0086839D02*
D03*
X-0024385D02*
D03*
X-0029385D02*
D03*
X-0034385D02*
D03*
X-0039385D02*
D03*
X-0044385D02*
D03*
X-0049385D02*
D03*
X-0054385D02*
D03*
X-0059385D02*
D03*
X-0064385D02*
D03*
X-0069385D02*
D03*
X-0074385D02*
D03*
X-0079385D02*
D03*
X-0084385D02*
D03*
Y-0015972D02*
D03*
X-0079385D02*
D03*
X-0074385D02*
D03*
X-0069385D02*
D03*
X-0064385D02*
D03*
X-0059385D02*
D03*
X-0054385D02*
D03*
X-0049385D02*
D03*
X-0044385D02*
D03*
X-0039385D02*
D03*
X-0034385D02*
D03*
X-0029385D02*
D03*
X-0024385D02*
D03*
D27*
X-0019385D02*
D03*
D28*
X-0090212Y-0048906D02*
D03*
Y-0053905D02*
D03*
Y-0058906D02*
D03*
Y-0063906D02*
D03*
Y-0068906D02*
D03*
Y-0073905D02*
D03*
Y-0028905D02*
D03*
Y-0033906D02*
D03*
Y-0038906D02*
D03*
Y-0043905D02*
D03*
D29*
X-0191507Y-0061598D02*
D03*
Y-0058449D02*
D03*
Y-0039551D02*
D03*
Y-0036402D02*
D03*
D30*
Y-004211D02*
D03*
Y-005589D02*
D03*
Y-0044079D02*
D03*
Y-0053921D02*
D03*
Y-0046047D02*
D03*
Y-0051953D02*
D03*
Y-0048016D02*
D03*
Y-0049984D02*
D03*
D31*
X-0195031Y-0085732D02*
D03*
X-0211369D02*
D03*
X-0195031Y-0077268D02*
D03*
X-0211369D02*
D03*
X-0210869Y-0012768D02*
D03*
X-0194531D02*
D03*
X-0210869Y-0021232D02*
D03*
X-0194531D02*
D03*
M02*
