G04*
G04 #@! TF.GenerationSoftware,Altium Limited,Altium Designer,25.4.2 (15)*
G04*
G04 Layer_Color=128*
%FSTAX25Y25*%
%MOIN*%
G70*
G04*
G04 #@! TF.SameCoordinates,9F79833E-919C-48C8-8BE8-C58A611C57C3*
G04*
G04*
G04 #@! TF.FilePolarity,Positive*
G04*
G01*
G75*
%ADD54C,0.00500*%
D54*
X-0205365Y-01045D02*
X-0201035D01*
X-02032Y-0106665D02*
Y-0102335D01*
X-0195365Y-01045D02*
X-0191035D01*
X-01932Y-0106665D02*
Y-0102335D01*
X-0185365Y-01045D02*
X-0181035D01*
X-01832Y-0106665D02*
Y-0102335D01*
X-0175365Y-01045D02*
X-0171035D01*
X-01732Y-0106665D02*
Y-0102335D01*
X-0165365Y-01045D02*
X-0161035D01*
X-01632Y-0106665D02*
Y-0102335D01*
X-0145365Y-01045D02*
X-0141035D01*
X-01432Y-0106665D02*
Y-0102335D01*
X-0135365Y-01045D02*
X-0131035D01*
X-01332Y-0106665D02*
Y-0102335D01*
X-0095365Y-01045D02*
X-0091035D01*
X-00932Y-0106665D02*
Y-0102335D01*
X-0065365Y-01045D02*
X-0061035D01*
X-00632Y-0106665D02*
Y-0102335D01*
X-0045365Y-01045D02*
X-0041035D01*
X-00432Y-0106665D02*
Y-0102335D01*
X-0025365Y-01045D02*
X-0021035D01*
X-00232Y-0106665D02*
Y-0102335D01*
X-0015365Y-01045D02*
X-0011035D01*
X-00132Y-0106665D02*
Y-0102335D01*
X-0035365Y-01045D02*
X-0031035D01*
X-00332Y-0106665D02*
Y-0102335D01*
X-0055365Y-01045D02*
X-0051035D01*
X-00532Y-0106665D02*
Y-0102335D01*
X-0075365Y-01045D02*
X-0071035D01*
X-00732Y-0106665D02*
Y-0102335D01*
X-0085365Y-01045D02*
X-0081035D01*
X-00832Y-0106665D02*
Y-0102335D01*
X-0105365Y-01045D02*
X-0101035D01*
X-01032Y-0106665D02*
Y-0102335D01*
X-0115365Y-01045D02*
X-0111035D01*
X-01132Y-0106665D02*
Y-0102335D01*
X-0125365Y-01045D02*
X-0121035D01*
X-01232Y-0106665D02*
Y-0102335D01*
X-0155365Y-01045D02*
X-0151035D01*
X-01532Y-0106665D02*
Y-0102335D01*
X-0204865Y0002D02*
X-0200535D01*
X-02027Y-0000165D02*
Y0004165D01*
X-0194865Y0002D02*
X-0190535D01*
X-01927Y-0000165D02*
Y0004165D01*
X-0184865Y0002D02*
X-0180535D01*
X-01827Y-0000165D02*
Y0004165D01*
X-0174865Y0002D02*
X-0170535D01*
X-01727Y-0000165D02*
Y0004165D01*
X-0164865Y0002D02*
X-0160535D01*
X-01627Y-0000165D02*
Y0004165D01*
X-0144865Y0002D02*
X-0140535D01*
X-01427Y-0000165D02*
Y0004165D01*
X-0134865Y0002D02*
X-0130535D01*
X-01327Y-0000165D02*
Y0004165D01*
X-0094865Y0002D02*
X-0090535D01*
X-00927Y-0000165D02*
Y0004165D01*
X-0064865Y0002D02*
X-0060535D01*
X-00627Y-0000165D02*
Y0004165D01*
X-0044865Y0002D02*
X-0040535D01*
X-00427Y-0000165D02*
Y0004165D01*
X-0024865Y0002D02*
X-0020535D01*
X-00227Y-0000165D02*
Y0004165D01*
X-0014865Y0002D02*
X-0010535D01*
X-00127Y-0000165D02*
Y0004165D01*
X-0034865Y0002D02*
X-0030535D01*
X-00327Y-0000165D02*
Y0004165D01*
X-0054865Y0002D02*
X-0050535D01*
X-00527Y-0000165D02*
Y0004165D01*
X-0074865Y0002D02*
X-0070535D01*
X-00727Y-0000165D02*
Y0004165D01*
X-0084865Y0002D02*
X-0080535D01*
X-00827Y-0000165D02*
Y0004165D01*
X-0104865Y0002D02*
X-0100535D01*
X-01027Y-0000165D02*
Y0004165D01*
X-0114865Y0002D02*
X-0110535D01*
X-01127Y-0000165D02*
Y0004165D01*
X-0124865Y0002D02*
X-0120535D01*
X-01227Y-0000165D02*
Y0004165D01*
X-0154865Y0002D02*
X-0150535D01*
X-01527Y-0000165D02*
Y0004165D01*
X-0211389Y-0066008D02*
X-0209027D01*
X-0210208Y-0067189D02*
Y-0064827D01*
X-0211389Y-0031992D02*
X-0209027D01*
X-0210208Y-0033173D02*
Y-0030811D01*
X-0194932Y-0066008D02*
X-019257D01*
X-0193751Y-0067189D02*
Y-0064827D01*
X-0194932Y-0031992D02*
X-019257D01*
X-0193751Y-0033173D02*
Y-0030811D01*
X-0196999Y-0037622D02*
X-019444D01*
X-019572Y-0038902D02*
Y-0036342D01*
X-0196999Y-0060378D02*
X-019444D01*
X-019572Y-0061658D02*
Y-0059098D01*
X-01306Y-00685D02*
X-01298D01*
X-01302Y-00689D02*
Y-00681D01*
X-0052062Y-0050224D02*
X-0050881D01*
X-0051472Y-0050815D02*
Y-0049634D01*
X-0048519Y-0050224D02*
X-0047338D01*
X-0047928Y-0050815D02*
Y-0049634D01*
X-0048519Y-0040776D02*
X-0047338D01*
X-0047928Y-0041366D02*
Y-0040185D01*
X-0052062Y-0040776D02*
X-0050881D01*
X-0051472Y-0041366D02*
Y-0040185D01*
X-0055015Y-0043728D02*
X-0053834D01*
X-0054424Y-0044319D02*
Y-0043138D01*
X-0055015Y-0047272D02*
X-0053834D01*
X-0054424Y-0047862D02*
Y-0046681D01*
X-0045566Y-0043728D02*
X-0044385D01*
X-0044976Y-0044319D02*
Y-0043138D01*
X-0045566Y-0047272D02*
X-0044385D01*
X-0044976Y-0047862D02*
Y-0046681D01*
X-0050291Y-0047272D02*
X-0049109D01*
X-00497Y-0047862D02*
Y-0046681D01*
X-0052062Y-00455D02*
X-0050881D01*
X-0051472Y-0046091D02*
Y-0044909D01*
X-0050291Y-0043728D02*
X-0049109D01*
X-00497Y-0044319D02*
Y-0043138D01*
X-0048519Y-00455D02*
X-0047338D01*
X-0047928Y-0046091D02*
Y-0044909D01*
X-02235Y-01014D02*
X-0210902D01*
X-0217201Y-0107699D02*
Y-0095101D01*
X-0223499Y0D02*
X-0210901D01*
X-02172Y-0006299D02*
Y0006299D01*
X-0006299Y-01014D02*
X0006299D01*
X0Y-0107699D02*
Y-0095101D01*
X-0006299Y0D02*
X0006299D01*
X0Y-0006299D02*
Y0006299D01*
X-01902Y-00971D02*
X-01894D01*
X-01898Y-00975D02*
Y-00967D01*
X-01551Y-00584D02*
X-01543D01*
X-01547Y-00588D02*
Y-0058D01*
X-01647Y-00581D02*
X-01639D01*
X-01643Y-00585D02*
Y-00577D01*
X-0159655Y-0063038D02*
X-0158855D01*
X-0159255Y-0063438D02*
Y-0062638D01*
X-01581Y-00533D02*
X-01573D01*
X-01577Y-00537D02*
Y-00529D01*
X-01716Y-00797D02*
X-01708D01*
X-01712Y-00801D02*
Y-00793D01*
X-0185356Y-0093242D02*
X-0184556D01*
X-0184956Y-0093642D02*
Y-0092842D01*
X-01686Y-00176D02*
X-01678D01*
X-01682Y-0018D02*
Y-00172D01*
X-01662Y-00053D02*
X-01654D01*
X-01658Y-00057D02*
Y-00049D01*
X-00348Y-00806D02*
X-0034D01*
X-00344Y-0081D02*
Y-00802D01*
X-0036Y-00725D02*
X-00352D01*
X-00356Y-00729D02*
Y-00721D01*
X-00366Y-00665D02*
X-00358D01*
X-00362Y-00669D02*
Y-00661D01*
X-01698Y-00632D02*
X-0169D01*
X-01694Y-00636D02*
Y-00628D01*
X-01716Y-00548D02*
X-01708D01*
X-01712Y-00552D02*
Y-00544D01*
X-01617Y-00644D02*
X-01609D01*
X-01613Y-00648D02*
Y-0064D01*
X-01899Y-00197D02*
X-01891D01*
X-01895Y-00201D02*
Y-00193D01*
X-0123791Y-0084218D02*
X-0122991D01*
X-0123391Y-0084618D02*
Y-0083818D01*
X-00801Y-00921D02*
X-00793D01*
X-00797Y-00925D02*
Y-00917D01*
X-0074785Y-00921D02*
X-0073985D01*
X-0074385Y-00925D02*
Y-00917D01*
X-0025558Y-0021969D02*
X-0024558D01*
X-0025058Y-0022469D02*
Y-0021469D01*
X-00946Y-0023D02*
X-00936D01*
X-00941Y-00235D02*
Y-00225D01*
X-01128Y-00632D02*
X-0112D01*
X-01124Y-00636D02*
Y-00628D01*
X-00981Y-00476D02*
X-00973D01*
X-00977Y-0048D02*
Y-00472D01*
X-00976Y-0054D02*
X-00968D01*
X-00972Y-00544D02*
Y-00536D01*
X-00976Y-0059D02*
X-00968D01*
X-00972Y-00594D02*
Y-00586D01*
X-00976Y-0064D02*
X-00968D01*
X-00972Y-00644D02*
Y-00636D01*
X-00976Y-0044D02*
X-00968D01*
X-00972Y-00444D02*
Y-00436D01*
X-01677Y-00638D02*
X-01669D01*
X-01673Y-00642D02*
Y-00634D01*
X-01965Y-00461D02*
X-01957D01*
X-01961Y-00465D02*
Y-00457D01*
X-01965Y-005D02*
X-01957D01*
X-01961Y-00504D02*
Y-00496D01*
X-0085231Y-0073599D02*
X-0084431D01*
X-0084831Y-0073999D02*
Y-0073199D01*
X-00976Y-0034D02*
X-00968D01*
X-00972Y-00344D02*
Y-00336D01*
X-00976Y-0039D02*
X-00968D01*
X-00972Y-00394D02*
Y-00386D01*
X-00976Y-0069D02*
X-00968D01*
X-00972Y-00694D02*
Y-00686D01*
X-00436Y-01045D02*
X-00428D01*
X-00432Y-01049D02*
Y-01041D01*
X-01376Y-00755D02*
X-01368D01*
X-01372Y-00759D02*
Y-00751D01*
X-0123713Y-0090537D02*
X-0122913D01*
X-0123313Y-0090937D02*
Y-0090137D01*
M02*
