G04*
G04 #@! TF.GenerationSoftware,Altium Limited,Altium Designer,25.4.2 (15)*
G04*
G04 Layer_Physical_Order=1*
G04 Layer_Color=255*
%FSTAX25Y25*%
%MOIN*%
G70*
G04*
G04 #@! TF.SameCoordinates,9F79833E-919C-48C8-8BE8-C58A611C57C3*
G04*
G04*
G04 #@! TF.FilePolarity,Positive*
G04*
G01*
G75*
G04:AMPARAMS|DCode=15|XSize=31.5mil|YSize=39.37mil|CornerRadius=3.94mil|HoleSize=0mil|Usage=FLASHONLY|Rotation=0.000|XOffset=0mil|YOffset=0mil|HoleType=Round|Shape=RoundedRectangle|*
%AMROUNDEDRECTD15*
21,1,0.03150,0.03150,0,0,0.0*
21,1,0.02362,0.03937,0,0,0.0*
1,1,0.00787,0.01181,-0.01575*
1,1,0.00787,-0.01181,-0.01575*
1,1,0.00787,-0.01181,0.01575*
1,1,0.00787,0.01181,0.01575*
%
%ADD15ROUNDEDRECTD15*%
G04:AMPARAMS|DCode=16|XSize=31.5mil|YSize=39.37mil|CornerRadius=3.94mil|HoleSize=0mil|Usage=FLASHONLY|Rotation=90.000|XOffset=0mil|YOffset=0mil|HoleType=Round|Shape=RoundedRectangle|*
%AMROUNDEDRECTD16*
21,1,0.03150,0.03150,0,0,90.0*
21,1,0.02362,0.03937,0,0,90.0*
1,1,0.00787,0.01575,0.01181*
1,1,0.00787,0.01575,-0.01181*
1,1,0.00787,-0.01575,-0.01181*
1,1,0.00787,-0.01575,0.01181*
%
%ADD16ROUNDEDRECTD16*%
G04:AMPARAMS|DCode=17|XSize=78.74mil|YSize=86.61mil|CornerRadius=9.84mil|HoleSize=0mil|Usage=FLASHONLY|Rotation=0.000|XOffset=0mil|YOffset=0mil|HoleType=Round|Shape=RoundedRectangle|*
%AMROUNDEDRECTD17*
21,1,0.07874,0.06693,0,0,0.0*
21,1,0.05906,0.08661,0,0,0.0*
1,1,0.01968,0.02953,-0.03347*
1,1,0.01968,-0.02953,-0.03347*
1,1,0.01968,-0.02953,0.03347*
1,1,0.01968,0.02953,0.03347*
%
%ADD17ROUNDEDRECTD17*%
G04:AMPARAMS|DCode=18|XSize=11.81mil|YSize=33.47mil|CornerRadius=1.48mil|HoleSize=0mil|Usage=FLASHONLY|Rotation=0.000|XOffset=0mil|YOffset=0mil|HoleType=Round|Shape=RoundedRectangle|*
%AMROUNDEDRECTD18*
21,1,0.01181,0.03051,0,0,0.0*
21,1,0.00886,0.03347,0,0,0.0*
1,1,0.00295,0.00443,-0.01526*
1,1,0.00295,-0.00443,-0.01526*
1,1,0.00295,-0.00443,0.01526*
1,1,0.00295,0.00443,0.01526*
%
%ADD18ROUNDEDRECTD18*%
G04:AMPARAMS|DCode=19|XSize=11.81mil|YSize=33.47mil|CornerRadius=1.48mil|HoleSize=0mil|Usage=FLASHONLY|Rotation=270.000|XOffset=0mil|YOffset=0mil|HoleType=Round|Shape=RoundedRectangle|*
%AMROUNDEDRECTD19*
21,1,0.01181,0.03051,0,0,270.0*
21,1,0.00886,0.03347,0,0,270.0*
1,1,0.00295,-0.01526,-0.00443*
1,1,0.00295,-0.01526,0.00443*
1,1,0.00295,0.01526,0.00443*
1,1,0.00295,0.01526,-0.00443*
%
%ADD19ROUNDEDRECTD19*%
G04:AMPARAMS|DCode=20|XSize=78.74mil|YSize=78.74mil|CornerRadius=9.84mil|HoleSize=0mil|Usage=FLASHONLY|Rotation=270.000|XOffset=0mil|YOffset=0mil|HoleType=Round|Shape=RoundedRectangle|*
%AMROUNDEDRECTD20*
21,1,0.07874,0.05906,0,0,270.0*
21,1,0.05906,0.07874,0,0,270.0*
1,1,0.01968,-0.02953,-0.02953*
1,1,0.01968,-0.02953,0.02953*
1,1,0.01968,0.02953,0.02953*
1,1,0.01968,0.02953,-0.02953*
%
%ADD20ROUNDEDRECTD20*%
G04:AMPARAMS|DCode=21|XSize=31.5mil|YSize=49.21mil|CornerRadius=3.94mil|HoleSize=0mil|Usage=FLASHONLY|Rotation=90.000|XOffset=0mil|YOffset=0mil|HoleType=Round|Shape=RoundedRectangle|*
%AMROUNDEDRECTD21*
21,1,0.03150,0.04134,0,0,90.0*
21,1,0.02362,0.04921,0,0,90.0*
1,1,0.00787,0.02067,0.01181*
1,1,0.00787,0.02067,-0.01181*
1,1,0.00787,-0.02067,-0.01181*
1,1,0.00787,-0.02067,0.01181*
%
%ADD21ROUNDEDRECTD21*%
G04:AMPARAMS|DCode=22|XSize=23.62mil|YSize=31.5mil|CornerRadius=2.95mil|HoleSize=0mil|Usage=FLASHONLY|Rotation=90.000|XOffset=0mil|YOffset=0mil|HoleType=Round|Shape=RoundedRectangle|*
%AMROUNDEDRECTD22*
21,1,0.02362,0.02559,0,0,90.0*
21,1,0.01772,0.03150,0,0,90.0*
1,1,0.00591,0.01280,0.00886*
1,1,0.00591,0.01280,-0.00886*
1,1,0.00591,-0.01280,-0.00886*
1,1,0.00591,-0.01280,0.00886*
%
%ADD22ROUNDEDRECTD22*%
G04:AMPARAMS|DCode=23|XSize=141.73mil|YSize=86.61mil|CornerRadius=10.83mil|HoleSize=0mil|Usage=FLASHONLY|Rotation=90.000|XOffset=0mil|YOffset=0mil|HoleType=Round|Shape=RoundedRectangle|*
%AMROUNDEDRECTD23*
21,1,0.14173,0.06496,0,0,90.0*
21,1,0.12008,0.08661,0,0,90.0*
1,1,0.02165,0.03248,0.06004*
1,1,0.02165,0.03248,-0.06004*
1,1,0.02165,-0.03248,-0.06004*
1,1,0.02165,-0.03248,0.06004*
%
%ADD23ROUNDEDRECTD23*%
G04:AMPARAMS|DCode=24|XSize=47.24mil|YSize=86.61mil|CornerRadius=5.91mil|HoleSize=0mil|Usage=FLASHONLY|Rotation=90.000|XOffset=0mil|YOffset=0mil|HoleType=Round|Shape=RoundedRectangle|*
%AMROUNDEDRECTD24*
21,1,0.04724,0.07480,0,0,90.0*
21,1,0.03543,0.08661,0,0,90.0*
1,1,0.01181,0.03740,0.01772*
1,1,0.01181,0.03740,-0.01772*
1,1,0.01181,-0.03740,-0.01772*
1,1,0.01181,-0.03740,0.01772*
%
%ADD24ROUNDEDRECTD24*%
%ADD25R,0.14567X0.14567*%
G04:AMPARAMS|DCode=26|XSize=78.74mil|YSize=39.37mil|CornerRadius=4.92mil|HoleSize=0mil|Usage=FLASHONLY|Rotation=270.000|XOffset=0mil|YOffset=0mil|HoleType=Round|Shape=RoundedRectangle|*
%AMROUNDEDRECTD26*
21,1,0.07874,0.02953,0,0,270.0*
21,1,0.06890,0.03937,0,0,270.0*
1,1,0.00984,-0.01476,-0.03445*
1,1,0.00984,-0.01476,0.03445*
1,1,0.00984,0.01476,0.03445*
1,1,0.00984,0.01476,-0.03445*
%
%ADD26ROUNDEDRECTD26*%
%ADD27R,0.03937X0.07874*%
G04:AMPARAMS|DCode=28|XSize=39.37mil|YSize=78.74mil|CornerRadius=4.92mil|HoleSize=0mil|Usage=FLASHONLY|Rotation=270.000|XOffset=0mil|YOffset=0mil|HoleType=Round|Shape=RoundedRectangle|*
%AMROUNDEDRECTD28*
21,1,0.03937,0.06890,0,0,270.0*
21,1,0.02953,0.07874,0,0,270.0*
1,1,0.00984,-0.03445,-0.01476*
1,1,0.00984,-0.03445,0.01476*
1,1,0.00984,0.03445,0.01476*
1,1,0.00984,0.03445,-0.01476*
%
%ADD28ROUNDEDRECTD28*%
G04:AMPARAMS|DCode=29|XSize=23.62mil|YSize=47.24mil|CornerRadius=5.91mil|HoleSize=0mil|Usage=FLASHONLY|Rotation=270.000|XOffset=0mil|YOffset=0mil|HoleType=Round|Shape=RoundedRectangle|*
%AMROUNDEDRECTD29*
21,1,0.02362,0.03543,0,0,270.0*
21,1,0.01181,0.04724,0,0,270.0*
1,1,0.01181,-0.01772,-0.00591*
1,1,0.01181,-0.01772,0.00591*
1,1,0.01181,0.01772,0.00591*
1,1,0.01181,0.01772,-0.00591*
%
%ADD29ROUNDEDRECTD29*%
G04:AMPARAMS|DCode=30|XSize=11.81mil|YSize=47.24mil|CornerRadius=2.95mil|HoleSize=0mil|Usage=FLASHONLY|Rotation=270.000|XOffset=0mil|YOffset=0mil|HoleType=Round|Shape=RoundedRectangle|*
%AMROUNDEDRECTD30*
21,1,0.01181,0.04134,0,0,270.0*
21,1,0.00591,0.04724,0,0,270.0*
1,1,0.00591,-0.02067,-0.00295*
1,1,0.00591,-0.02067,0.00295*
1,1,0.00591,0.02067,0.00295*
1,1,0.00591,0.02067,-0.00295*
%
%ADD30ROUNDEDRECTD30*%
G04:AMPARAMS|DCode=31|XSize=41.34mil|YSize=25.59mil|CornerRadius=3.2mil|HoleSize=0mil|Usage=FLASHONLY|Rotation=0.000|XOffset=0mil|YOffset=0mil|HoleType=Round|Shape=RoundedRectangle|*
%AMROUNDEDRECTD31*
21,1,0.04134,0.01919,0,0,0.0*
21,1,0.03494,0.02559,0,0,0.0*
1,1,0.00640,0.01747,-0.00960*
1,1,0.00640,-0.01747,-0.00960*
1,1,0.00640,-0.01747,0.00960*
1,1,0.00640,0.01747,0.00960*
%
%ADD31ROUNDEDRECTD31*%
%ADD53C,0.00800*%
%ADD54C,0.00500*%
%ADD55C,0.01000*%
%ADD56C,0.02100*%
%ADD57C,0.06299*%
G04:AMPARAMS|DCode=58|XSize=62.99mil|YSize=62.99mil|CornerRadius=15.75mil|HoleSize=0mil|Usage=FLASHONLY|Rotation=180.000|XOffset=0mil|YOffset=0mil|HoleType=Round|Shape=RoundedRectangle|*
%AMROUNDEDRECTD58*
21,1,0.06299,0.03150,0,0,180.0*
21,1,0.03150,0.06299,0,0,180.0*
1,1,0.03150,-0.01575,0.01575*
1,1,0.03150,0.01575,0.01575*
1,1,0.03150,0.01575,-0.01575*
1,1,0.03150,-0.01575,-0.01575*
%
%ADD58ROUNDEDRECTD58*%
%ADD59O,0.07087X0.03937*%
%ADD60O,0.08268X0.03937*%
%ADD61C,0.02559*%
%ADD62C,0.01200*%
%ADD63C,0.01500*%
%ADD64C,0.12598*%
%ADD65C,0.01800*%
G36*
X000908Y-0014953D02*
X-00147D01*
X-001509Y-0015031D01*
X-0015421Y-0015251D01*
X-0015642Y-0015582D01*
X-001572Y-0015972D01*
Y-0086839D01*
X-0015642Y-0087229D01*
X-0015421Y-0087559D01*
X-001509Y-0087781D01*
X-00147Y-0087858D01*
X000908D01*
Y-0111807D01*
X-0224626Y-0112289D01*
X-022498Y-0111936D01*
Y-010227D01*
X-022448Y-0102221D01*
X-0224219Y-0103529D01*
X-0223669Y-0104858D01*
X-022287Y-0106053D01*
X-0221854Y-010707D01*
X-0220658Y-0107869D01*
X-021933Y-0108419D01*
X-021792Y-0108699D01*
X-0216482D01*
X-0215072Y-0108419D01*
X-0213743Y-0107869D01*
X-0212548Y-010707D01*
X-0211531Y-0106053D01*
X-0210732Y-0104858D01*
X-0210182Y-0103529D01*
X-0209902Y-0102119D01*
Y-0100681D01*
X-0210182Y-0099271D01*
X-0210732Y-0097943D01*
X-0211531Y-0096747D01*
X-0212548Y-009573D01*
X-0213743Y-0094932D01*
X-0215072Y-0094381D01*
X-0216482Y-0094101D01*
X-021792D01*
X-021933Y-0094381D01*
X-0220658Y-0094932D01*
X-0221854Y-009573D01*
X-022287Y-0096747D01*
X-0223669Y-0097943D01*
X-0224219Y-0099271D01*
X-022448Y-0100579D01*
X-022498Y-010053D01*
Y-0000866D01*
X-022448Y-0000817D01*
X-0224219Y-0002129D01*
X-0223669Y-0003458D01*
X-022287Y-0004653D01*
X-0221853Y-000567D01*
X-0220657Y-0006469D01*
X-0219329Y-0007019D01*
X-0217919Y-0007299D01*
X-0216481D01*
X-0215071Y-0007019D01*
X-0213742Y-0006469D01*
X-0212547Y-000567D01*
X-021153Y-0004653D01*
X-0210732Y-0003458D01*
X-0210181Y-0002129D01*
X-0209901Y-0000719D01*
Y0000719D01*
X-0210181Y0002129D01*
X-0210732Y0003458D01*
X-021153Y0004653D01*
X-0212547Y000567D01*
X-0213742Y0006469D01*
X-0215071Y0007019D01*
X-0216481Y0007299D01*
X-0217919D01*
X-0219329Y0007019D01*
X-0220657Y0006469D01*
X-0221853Y000567D01*
X-022287Y0004653D01*
X-0223669Y0003458D01*
X-0224219Y0002129D01*
X-022448Y0000817D01*
X-022498Y0000866D01*
Y001028D01*
X000908D01*
Y-0014953D01*
D02*
G37*
%LPC*%
G36*
X-0152154Y000615D02*
X-0153246D01*
X-0154302Y0005867D01*
X-0155248Y000532D01*
X-015602Y0004548D01*
X-0156567Y0003602D01*
X-015685Y0002546D01*
Y0001454D01*
X-0156567Y0000398D01*
X-015602Y-0000548D01*
X-0155248Y-0001321D01*
X-0154302Y-0001867D01*
X-0153246Y-000215D01*
X-0152154D01*
X-0151098Y-0001867D01*
X-0150152Y-0001321D01*
X-014938Y-0000548D01*
X-0148833Y0000398D01*
X-014855Y0001454D01*
Y0002546D01*
X-0148833Y0003602D01*
X-014938Y0004548D01*
X-0150152Y000532D01*
X-0151098Y0005867D01*
X-0152154Y000615D01*
D02*
G37*
G36*
X-0162154D02*
X-0163246D01*
X-0164302Y0005867D01*
X-0165248Y000532D01*
X-0166021Y0004548D01*
X-0166567Y0003602D01*
X-016685Y0002546D01*
Y0001454D01*
X-0166567Y0000398D01*
X-0166021Y-0000548D01*
X-0165248Y-0001321D01*
X-0164302Y-0001867D01*
X-0163246Y-000215D01*
X-0162154D01*
X-0161098Y-0001867D01*
X-0160152Y-0001321D01*
X-0159379Y-0000548D01*
X-0158833Y0000398D01*
X-015855Y0001454D01*
Y0002546D01*
X-0158833Y0003602D01*
X-0159379Y0004548D01*
X-0160152Y000532D01*
X-0161098Y0005867D01*
X-0162154Y000615D01*
D02*
G37*
G36*
X-0172154D02*
X-0173246D01*
X-0174302Y0005867D01*
X-0175248Y000532D01*
X-0176021Y0004548D01*
X-0176567Y0003602D01*
X-017685Y0002546D01*
Y0001454D01*
X-0176567Y0000398D01*
X-0176021Y-0000548D01*
X-0175248Y-0001321D01*
X-0174302Y-0001867D01*
X-0173246Y-000215D01*
X-0172154D01*
X-0171098Y-0001867D01*
X-0170152Y-0001321D01*
X-0169379Y-0000548D01*
X-0168833Y0000398D01*
X-016855Y0001454D01*
Y0002546D01*
X-0168833Y0003602D01*
X-0169379Y0004548D01*
X-0170152Y000532D01*
X-0171098Y0005867D01*
X-0172154Y000615D01*
D02*
G37*
G36*
X-0182154D02*
X-0183246D01*
X-0184302Y0005867D01*
X-0185248Y000532D01*
X-0186021Y0004548D01*
X-0186567Y0003602D01*
X-018685Y0002546D01*
Y0001454D01*
X-0186567Y0000398D01*
X-0186021Y-0000548D01*
X-0185248Y-0001321D01*
X-0184302Y-0001867D01*
X-0183246Y-000215D01*
X-0182154D01*
X-0181098Y-0001867D01*
X-0180152Y-0001321D01*
X-0179379Y-0000548D01*
X-0178833Y0000398D01*
X-017855Y0001454D01*
Y0002546D01*
X-0178833Y0003602D01*
X-0179379Y0004548D01*
X-0180152Y000532D01*
X-0181098Y0005867D01*
X-0182154Y000615D01*
D02*
G37*
G36*
X-0202154D02*
X-0203246D01*
X-0204302Y0005867D01*
X-0205248Y000532D01*
X-020602Y0004548D01*
X-0206567Y0003602D01*
X-020685Y0002546D01*
Y0001454D01*
X-0206567Y0000398D01*
X-020602Y-0000548D01*
X-0205248Y-0001321D01*
X-0204302Y-0001867D01*
X-0203246Y-000215D01*
X-0202154D01*
X-0201098Y-0001867D01*
X-0200152Y-0001321D01*
X-019938Y-0000548D01*
X-0198833Y0000398D01*
X-019855Y0001454D01*
Y0002546D01*
X-0198833Y0003602D01*
X-019938Y0004548D01*
X-0200152Y000532D01*
X-0201098Y0005867D01*
X-0202154Y000615D01*
D02*
G37*
G36*
X-0011125Y0006172D02*
X-0014275D01*
X-0014947Y0006083D01*
X-0015573Y0005824D01*
X-0016111Y0005411D01*
X-0016524Y0004873D01*
X-0016783Y0004247D01*
X-0016872Y0003575D01*
Y0000425D01*
X-0016804Y-0000086D01*
X-0020946Y-0004228D01*
X-0020955Y-0004224D01*
X-0021359Y-0003933D01*
X-0021273Y-00035D01*
Y-0001914D01*
X-0021098Y-0001867D01*
X-0020152Y-0001321D01*
X-0019379Y-0000548D01*
X-0018833Y0000398D01*
X-001855Y0001454D01*
Y0002546D01*
X-0018833Y0003602D01*
X-0019379Y0004548D01*
X-0020152Y000532D01*
X-0021098Y0005867D01*
X-0022154Y000615D01*
X-0023246D01*
X-0024302Y0005867D01*
X-0025248Y000532D01*
X-0026021Y0004548D01*
X-0026567Y0003602D01*
X-002685Y0002546D01*
Y0001454D01*
X-0026567Y0000398D01*
X-0026021Y-0000548D01*
X-0025248Y-0001321D01*
X-0024302Y-0001867D01*
X-0024127Y-0001914D01*
Y-0002909D01*
X-0030394Y-0009176D01*
X-0030704Y-0009639D01*
X-0030812Y-0010185D01*
X-0030812Y-0010185D01*
Y-0011006D01*
X-0030861D01*
X-0031269Y-0011087D01*
X-0031586Y-0010661D01*
X-0031381Y-0010355D01*
X-0031273Y-0009809D01*
Y-0001914D01*
X-0031098Y-0001867D01*
X-0030152Y-0001321D01*
X-0029379Y-0000548D01*
X-0028833Y0000398D01*
X-002855Y0001454D01*
Y0002546D01*
X-0028833Y0003602D01*
X-0029379Y0004548D01*
X-0030152Y000532D01*
X-0031098Y0005867D01*
X-0032154Y000615D01*
X-0033246D01*
X-0034302Y0005867D01*
X-0035248Y000532D01*
X-003602Y0004548D01*
X-0036567Y0003602D01*
X-003685Y0002546D01*
Y0001454D01*
X-0036567Y0000398D01*
X-003602Y-0000548D01*
X-0035248Y-0001321D01*
X-0034302Y-0001867D01*
X-0034127Y-0001914D01*
Y-0009218D01*
X-0035204Y-0010295D01*
X-0035514Y-0010758D01*
X-0035563Y-0011006D01*
X-0035861D01*
X-0036444Y-0011122D01*
X-0036885Y-0011417D01*
X-0037326Y-0011122D01*
X-0037773Y-0011033D01*
Y-00055D01*
X-0037881Y-0004954D01*
X-0038191Y-0004491D01*
X-0038191Y-0004491D01*
X-0040628Y-0002053D01*
X-0040563Y-0001558D01*
X-0040152Y-0001321D01*
X-003938Y-0000548D01*
X-0038833Y0000398D01*
X-003855Y0001454D01*
Y0002546D01*
X-0038833Y0003602D01*
X-003938Y0004548D01*
X-0040152Y000532D01*
X-0041098Y0005867D01*
X-0042154Y000615D01*
X-0043246D01*
X-0044302Y0005867D01*
X-0045248Y000532D01*
X-004602Y0004548D01*
X-0046567Y0003602D01*
X-004685Y0002546D01*
Y0001454D01*
X-0046567Y0000398D01*
X-004602Y-0000548D01*
X-0045248Y-0001321D01*
X-0044302Y-0001867D01*
X-0043778Y-0002007D01*
Y-000235D01*
X-0043778Y-000235D01*
X-0043669Y-0002896D01*
X-004336Y-0003359D01*
X-0040627Y-0006091D01*
Y-0011006D01*
X-0040861D01*
X-0041444Y-0011122D01*
X-0041885Y-0011417D01*
X-0042327Y-0011122D01*
X-0042909Y-0011006D01*
X-0042958D01*
Y-0006315D01*
X-0042958Y-0006315D01*
X-0043066Y-0005769D01*
X-0043376Y-0005306D01*
X-0043376Y-0005306D01*
X-0048923Y0000242D01*
X-0048833Y0000398D01*
X-004855Y0001454D01*
Y0002546D01*
X-0048833Y0003602D01*
X-004938Y0004548D01*
X-0050152Y000532D01*
X-0051098Y0005867D01*
X-0052154Y000615D01*
X-0053246D01*
X-0054302Y0005867D01*
X-0055248Y000532D01*
X-005602Y0004548D01*
X-0056567Y0003602D01*
X-005685Y0002546D01*
Y0001454D01*
X-0056567Y0000398D01*
X-005602Y-0000548D01*
X-0055248Y-0001321D01*
X-0054811Y-0001573D01*
X-0054945Y-0002073D01*
X-0059109D01*
X-0060006Y-0001175D01*
X-005938Y-0000548D01*
X-0058833Y0000398D01*
X-005855Y0001454D01*
Y0002546D01*
X-0058833Y0003602D01*
X-005938Y0004548D01*
X-0060152Y000532D01*
X-0061098Y0005867D01*
X-0062154Y000615D01*
X-0063246D01*
X-0064302Y0005867D01*
X-0065248Y000532D01*
X-0066021Y0004548D01*
X-0066567Y0003602D01*
X-006685Y0002546D01*
Y0001454D01*
X-0066619Y0000593D01*
X-0067053Y0000282D01*
X-0067108Y0000319D01*
X-0067654Y0000427D01*
X-0067655Y0000427D01*
X-0068415D01*
X-0068719Y0000824D01*
X-006855Y0001454D01*
Y0002546D01*
X-0068833Y0003602D01*
X-006938Y0004548D01*
X-0070152Y000532D01*
X-0071098Y0005867D01*
X-0072154Y000615D01*
X-0073246D01*
X-0074302Y0005867D01*
X-0075248Y000532D01*
X-007602Y0004548D01*
X-0076567Y0003602D01*
X-007685Y0002546D01*
Y0001454D01*
X-0076567Y0000398D01*
X-007602Y-0000548D01*
X-0075696Y-0000873D01*
X-0075903Y-0001373D01*
X-0077309D01*
X-0078923Y0000242D01*
X-0078833Y0000398D01*
X-007855Y0001454D01*
Y0002546D01*
X-0078833Y0003602D01*
X-0079379Y0004548D01*
X-0080152Y000532D01*
X-0081098Y0005867D01*
X-0082154Y000615D01*
X-0083246D01*
X-0084302Y0005867D01*
X-0085248Y000532D01*
X-008602Y0004548D01*
X-0086567Y0003602D01*
X-008685Y0002546D01*
Y0001454D01*
X-0086567Y0000398D01*
X-008602Y-0000548D01*
X-0085248Y-0001321D01*
X-0084302Y-0001867D01*
X-0083246Y-000215D01*
X-0082154D01*
X-0081098Y-0001867D01*
X-0080942Y-0001777D01*
X-0079373Y-0003346D01*
X-0079564Y-0003808D01*
X-0084873D01*
X-0088923Y0000242D01*
X-0088833Y0000398D01*
X-008855Y0001454D01*
Y0002546D01*
X-0088833Y0003602D01*
X-008938Y0004548D01*
X-0090152Y000532D01*
X-0091098Y0005867D01*
X-0092154Y000615D01*
X-0093246D01*
X-0094302Y0005867D01*
X-0095248Y000532D01*
X-0096021Y0004548D01*
X-0096567Y0003602D01*
X-009685Y0002546D01*
Y0001454D01*
X-0096567Y0000398D01*
X-0096021Y-0000548D01*
X-0095248Y-0001321D01*
X-0094302Y-0001867D01*
X-0093246Y-000215D01*
X-0092154D01*
X-0091098Y-0001867D01*
X-0090942Y-0001777D01*
X-0087573Y-0005146D01*
X-0087764Y-0005608D01*
X-0093073D01*
X-0098923Y0000242D01*
X-0098833Y0000398D01*
X-009855Y0001454D01*
Y0002546D01*
X-0098833Y0003602D01*
X-0099379Y0004548D01*
X-0100152Y000532D01*
X-0101098Y0005867D01*
X-0102154Y000615D01*
X-0103246D01*
X-0104302Y0005867D01*
X-0105248Y000532D01*
X-010602Y0004548D01*
X-0106567Y0003602D01*
X-010685Y0002546D01*
Y0001454D01*
X-0106567Y0000398D01*
X-010602Y-0000548D01*
X-0105248Y-0001321D01*
X-0104302Y-0001867D01*
X-0103246Y-000215D01*
X-0102154D01*
X-0101098Y-0001867D01*
X-0100942Y-0001777D01*
X-0095773Y-0006946D01*
X-0095964Y-0007408D01*
X-0101273D01*
X-0108923Y0000242D01*
X-0108833Y0000398D01*
X-010855Y0001454D01*
Y0002546D01*
X-0108833Y0003602D01*
X-0109379Y0004548D01*
X-0110152Y000532D01*
X-0111098Y0005867D01*
X-0112154Y000615D01*
X-0113246D01*
X-0114302Y0005867D01*
X-0115248Y000532D01*
X-0116021Y0004548D01*
X-0116567Y0003602D01*
X-011685Y0002546D01*
Y0001454D01*
X-0116567Y0000398D01*
X-0116021Y-0000548D01*
X-0115248Y-0001321D01*
X-0114302Y-0001867D01*
X-0113246Y-000215D01*
X-0112154D01*
X-0111098Y-0001867D01*
X-0110942Y-0001777D01*
X-0103973Y-0008746D01*
X-0104164Y-0009208D01*
X-0120973D01*
X-0129506Y-0000675D01*
X-0129379Y-0000548D01*
X-0128833Y0000398D01*
X-012855Y0001454D01*
Y0002546D01*
X-0128833Y0003602D01*
X-0129379Y0004548D01*
X-0130152Y000532D01*
X-0131098Y0005867D01*
X-0132154Y000615D01*
X-0133246D01*
X-0134302Y0005867D01*
X-0135248Y000532D01*
X-0136021Y0004548D01*
X-0136567Y0003602D01*
X-013685Y0002546D01*
Y0001454D01*
X-0136567Y0000398D01*
X-0136021Y-0000548D01*
X-0135248Y-0001321D01*
X-0134302Y-0001867D01*
X-0133246Y-000215D01*
X-0132154D01*
X-0132087Y-0002132D01*
X-0123608Y-0010611D01*
X-0123799Y-0011073D01*
X-0127609D01*
X-0138923Y0000242D01*
X-0138833Y0000398D01*
X-013855Y0001454D01*
Y0002546D01*
X-0138833Y0003602D01*
X-013938Y0004548D01*
X-0140152Y000532D01*
X-0141098Y0005867D01*
X-0142154Y000615D01*
X-0143246D01*
X-0144302Y0005867D01*
X-0145248Y000532D01*
X-014602Y0004548D01*
X-0146567Y0003602D01*
X-014685Y0002546D01*
Y0001454D01*
X-0146567Y0000398D01*
X-014602Y-0000548D01*
X-0145248Y-0001321D01*
X-0144302Y-0001867D01*
X-0143246Y-000215D01*
X-0142154D01*
X-0141098Y-0001867D01*
X-0140942Y-0001777D01*
X-0129209Y-0013509D01*
X-0129209Y-0013509D01*
X-0128746Y-0013819D01*
X-01282Y-0013927D01*
X-01282Y-0013927D01*
X-0090791D01*
X-0088709Y-0016009D01*
X-0088709Y-0016009D01*
X-0088246Y-0016319D01*
X-00877Y-0016427D01*
X-0087383D01*
Y-0019417D01*
X-0087267Y-0019999D01*
X-0086937Y-0020493D01*
X-0086444Y-0020823D01*
X-0085861Y-0020939D01*
X-0082909D01*
X-0082327Y-0020823D01*
X-0081885Y-0020528D01*
X-0081444Y-0020823D01*
X-0080861Y-0020939D01*
X-0077909D01*
X-0077327Y-0020823D01*
X-0076885Y-0020528D01*
X-0076444Y-0020823D01*
X-0075861Y-0020939D01*
X-0072909D01*
X-0072326Y-0020823D01*
X-0071885Y-0020528D01*
X-0071444Y-0020823D01*
X-0070861Y-0020939D01*
X-0067909D01*
X-0067326Y-0020823D01*
X-0066885Y-0020528D01*
X-0066444Y-0020823D01*
X-0065861Y-0020939D01*
X-0062909D01*
X-0062327Y-0020823D01*
X-0061885Y-0020528D01*
X-0061444Y-0020823D01*
X-0060861Y-0020939D01*
X-0057909D01*
X-0057327Y-0020823D01*
X-0056885Y-0020528D01*
X-0056444Y-0020823D01*
X-0055861Y-0020939D01*
X-0052909D01*
X-0052327Y-0020823D01*
X-0051885Y-0020528D01*
X-0051444Y-0020823D01*
X-0050861Y-0020939D01*
X-0047909D01*
X-0047326Y-0020823D01*
X-0046885Y-0020528D01*
X-0046444Y-0020823D01*
X-0045861Y-0020939D01*
X-0042909D01*
X-0042327Y-0020823D01*
X-0041885Y-0020528D01*
X-0041444Y-0020823D01*
X-0040861Y-0020939D01*
X-0037909D01*
X-0037326Y-0020823D01*
X-0036885Y-0020528D01*
X-0036444Y-0020823D01*
X-0035861Y-0020939D01*
X-0032909D01*
X-0032326Y-0020823D01*
X-0031885Y-0020528D01*
X-0031444Y-0020823D01*
X-0030861Y-0020939D01*
X-0030812D01*
Y-0041394D01*
X-0065991Y-0076573D01*
X-0085167D01*
X-0085434Y-0076073D01*
X-0085361Y-0075964D01*
X-0085251Y-007541D01*
X-0084794Y-0075319D01*
X-0084615Y-0075199D01*
X-0084513D01*
X-0083925Y-0074956D01*
X-0083475Y-0074506D01*
X-0083231Y-0073917D01*
Y-0073281D01*
X-0083475Y-0072693D01*
X-0083925Y-0072243D01*
X-0084513Y-0071999D01*
X-0085149D01*
X-0085353Y-007189D01*
X-0085361Y-0071847D01*
X-0085656Y-0071406D01*
X-0085361Y-0070964D01*
X-0085246Y-0070382D01*
Y-0067429D01*
X-0085361Y-0066847D01*
X-0085656Y-0066405D01*
X-0085361Y-0065964D01*
X-0085246Y-0065382D01*
Y-0062429D01*
X-0085361Y-0061847D01*
X-0085656Y-0061405D01*
X-0085361Y-0060964D01*
X-0085246Y-0060382D01*
Y-0057429D01*
X-0085361Y-0056847D01*
X-0085656Y-0056406D01*
X-0085361Y-0055964D01*
X-0085246Y-0055382D01*
Y-0052429D01*
X-0085361Y-0051847D01*
X-0085656Y-0051406D01*
X-0085361Y-0050964D01*
X-0085246Y-0050382D01*
Y-0047429D01*
X-0085361Y-0046847D01*
X-0085656Y-0046406D01*
X-0085361Y-0045964D01*
X-0085246Y-0045382D01*
Y-0042429D01*
X-0085361Y-0041847D01*
X-0085656Y-0041405D01*
X-0085361Y-0040964D01*
X-0085246Y-0040382D01*
Y-0037429D01*
X-0085361Y-0036847D01*
X-0085656Y-0036406D01*
X-0085361Y-0035964D01*
X-0085246Y-0035382D01*
Y-0032429D01*
X-0085361Y-0031847D01*
X-0085691Y-0031353D01*
X-0086185Y-0031024D01*
X-0086767Y-0030908D01*
X-0093657D01*
X-0094239Y-0031024D01*
X-0094732Y-0031353D01*
X-0095062Y-0031847D01*
X-0095178Y-0032429D01*
Y-0032573D01*
X-0096465D01*
X-0096882Y-00324D01*
X-0097518D01*
X-0098106Y-0032644D01*
X-0098556Y-0033094D01*
X-00988Y-0033682D01*
Y-0034318D01*
X-0098556Y-0034906D01*
X-0098106Y-0035356D01*
X-0097518Y-00356D01*
X-0096882D01*
X-0096465Y-0035427D01*
X-0095169D01*
X-0095062Y-0035964D01*
X-0094767Y-0036406D01*
X-0095062Y-0036847D01*
X-0095178Y-0037429D01*
Y-0037573D01*
X-0096465D01*
X-0096882Y-00374D01*
X-0097518D01*
X-0098106Y-0037644D01*
X-0098556Y-0038094D01*
X-00988Y-0038682D01*
Y-0039318D01*
X-0098556Y-0039906D01*
X-0098106Y-0040356D01*
X-0097518Y-00406D01*
X-0096882D01*
X-0096465Y-0040427D01*
X-0095169D01*
X-0095062Y-0040964D01*
X-0094767Y-0041405D01*
X-0095062Y-0041847D01*
X-0095178Y-0042429D01*
Y-0042573D01*
X-0096465D01*
X-0096882Y-00424D01*
X-0097518D01*
X-0098106Y-0042644D01*
X-0098556Y-0043094D01*
X-00988Y-0043682D01*
Y-0044318D01*
X-0098556Y-0044906D01*
X-0098106Y-0045356D01*
X-009776Y-00455D01*
X-0097859Y-0046D01*
X-0098018D01*
X-0098606Y-0046244D01*
X-0099056Y-0046694D01*
X-00993Y-0047282D01*
Y-0047918D01*
X-0099056Y-0048506D01*
X-0098606Y-0048956D01*
X-009819Y-0049129D01*
X-0097309Y-0050009D01*
X-0097309Y-0050009D01*
X-0096846Y-0050319D01*
X-00963Y-0050427D01*
X-00963Y-0050427D01*
X-0095169D01*
X-0095062Y-0050964D01*
X-0094767Y-0051406D01*
X-0095062Y-0051847D01*
X-0095178Y-0052429D01*
Y-0052573D01*
X-0096465D01*
X-0096882Y-00524D01*
X-0097518D01*
X-0098106Y-0052644D01*
X-0098556Y-0053094D01*
X-00988Y-0053682D01*
Y-0054318D01*
X-0098556Y-0054906D01*
X-0098106Y-0055356D01*
X-0097518Y-00556D01*
X-0096882D01*
X-0096465Y-0055427D01*
X-0095169D01*
X-0095062Y-0055964D01*
X-0094767Y-0056406D01*
X-0095062Y-0056847D01*
X-0095178Y-0057429D01*
Y-0057573D01*
X-0096465D01*
X-0096882Y-00574D01*
X-0097518D01*
X-0098106Y-0057644D01*
X-0098556Y-0058094D01*
X-00988Y-0058682D01*
Y-0059318D01*
X-0098556Y-0059906D01*
X-0098106Y-0060356D01*
X-0097518Y-00606D01*
X-0096882D01*
X-0096465Y-0060427D01*
X-0095169D01*
X-0095062Y-0060964D01*
X-0094767Y-0061405D01*
X-0095062Y-0061847D01*
X-0095178Y-0062429D01*
Y-0062573D01*
X-0096465D01*
X-0096882Y-00624D01*
X-0097518D01*
X-0098106Y-0062644D01*
X-0098556Y-0063094D01*
X-00988Y-0063682D01*
Y-0064318D01*
X-0098556Y-0064906D01*
X-0098106Y-0065356D01*
X-0097518Y-00656D01*
X-0096882D01*
X-0096465Y-0065427D01*
X-0095169D01*
X-0095062Y-0065964D01*
X-0094767Y-0066405D01*
X-0095062Y-0066847D01*
X-0095178Y-0067429D01*
Y-0067573D01*
X-0096465D01*
X-0096882Y-00674D01*
X-0097518D01*
X-0098106Y-0067644D01*
X-0098556Y-0068094D01*
X-00988Y-0068682D01*
Y-0069318D01*
X-0098556Y-0069906D01*
X-0098106Y-0070356D01*
X-0097518Y-00706D01*
X-0096882D01*
X-0096465Y-0070427D01*
X-0095169D01*
X-0095062Y-0070964D01*
X-0094767Y-0071406D01*
X-0095062Y-0071847D01*
X-0095178Y-0072429D01*
Y-0072478D01*
X-0099203D01*
X-0104773Y-0066909D01*
Y-00605D01*
X-0104773Y-00605D01*
X-0104881Y-0059954D01*
X-0105191Y-0059491D01*
X-0105191Y-0059491D01*
X-0108691Y-0055991D01*
X-0109154Y-0055681D01*
X-01097Y-0055573D01*
X-01097Y-0055573D01*
X-0110948D01*
Y-0055425D01*
X-0111056Y-0054881D01*
X-0111364Y-005442D01*
X-0111826Y-0054112D01*
X-0112369Y-0054004D01*
X-0114732D01*
X-0115275Y-0054112D01*
X-0115736Y-005442D01*
X-0116044Y-0054881D01*
X-0116153Y-0055425D01*
Y-0058575D01*
X-0116044Y-0059119D01*
X-0115736Y-005958D01*
X-0115275Y-0059888D01*
X-0114732Y-0059996D01*
X-0112369D01*
X-0111826Y-0059888D01*
X-0111364Y-005958D01*
X-0111056Y-0059119D01*
X-0110948Y-0058575D01*
Y-0058427D01*
X-0110291D01*
X-0107627Y-0061091D01*
Y-00675D01*
X-0107627Y-00675D01*
X-0107519Y-0068046D01*
X-0107209Y-0068509D01*
X-0100804Y-0074915D01*
X-0100804Y-0074915D01*
X-0100341Y-0075224D01*
X-0099795Y-0075333D01*
X-0099794Y-0075333D01*
X-0095178D01*
Y-0075382D01*
X-0095062Y-0075964D01*
X-009499Y-0076073D01*
X-0095257Y-0076573D01*
X-0101109D01*
X-0109726Y-0067955D01*
Y-0066374D01*
X-0109826Y-0065869D01*
X-0110113Y-006544D01*
X-0110541Y-0065154D01*
X-0110899Y-0065083D01*
Y-0063756D01*
X-01108Y-0063518D01*
Y-0062882D01*
X-0111044Y-0062294D01*
X-0111494Y-0061844D01*
X-0112082Y-00616D01*
X-0112718D01*
X-0113306Y-0061844D01*
X-0113756Y-0062294D01*
X-0114Y-0062882D01*
Y-0063518D01*
X-0113756Y-0064106D01*
X-0113753Y-0064109D01*
Y-0065083D01*
X-0114111Y-0065154D01*
X-0114539Y-006544D01*
X-0114826Y-0065869D01*
X-0114926Y-0066374D01*
Y-0067102D01*
X-0115388Y-0067293D01*
X-0115691Y-0066991D01*
X-0116154Y-0066681D01*
X-01167Y-0066573D01*
X-01167Y-0066573D01*
X-012355D01*
X-012355Y-0066573D01*
X-0123669Y-0066596D01*
X-0123864Y-0066125D01*
X-0123691Y-0066009D01*
X-0122935Y-0065254D01*
X-0122438Y-0065303D01*
X-0122413Y-0065339D01*
X-0121985Y-0065626D01*
X-0121479Y-0065726D01*
X-0118921D01*
X-0118415Y-0065626D01*
X-0117987Y-0065339D01*
X-01177Y-0064911D01*
X-01176Y-0064406D01*
Y-0062634D01*
X-01177Y-0062129D01*
X-0117987Y-00617D01*
X-0118415Y-0061414D01*
X-0118921Y-0061313D01*
X-0121479D01*
X-0121985Y-0061414D01*
X-0122413Y-00617D01*
X-0122662Y-0062073D01*
X-01232D01*
X-01232Y-0062073D01*
X-0123746Y-0062181D01*
X-0124209Y-0062491D01*
X-0124295Y-0062577D01*
X-0124793Y-0062528D01*
X-0124864Y-006242D01*
X-0125326Y-0062112D01*
X-0125869Y-0062004D01*
X-0128232D01*
X-0128775Y-0062112D01*
X-0129236Y-006242D01*
X-0129544Y-0062881D01*
X-0129653Y-0063425D01*
Y-0066365D01*
X-0130152Y-0066572D01*
X-0130747Y-0065977D01*
Y-0063425D01*
X-0130856Y-0062881D01*
X-0131164Y-006242D01*
X-0131625Y-0062112D01*
X-0132168Y-0062004D01*
X-0134531D01*
X-0135074Y-0062112D01*
X-0135536Y-006242D01*
X-0135844Y-0062881D01*
X-0135952Y-0063425D01*
Y-0063573D01*
X-0137523D01*
X-0137523Y-0063573D01*
X-0138069Y-0063681D01*
X-0138532Y-0063991D01*
X-0138532Y-0063991D01*
X-0142673Y-0068131D01*
X-0144733D01*
X-0144999Y-0067949D01*
X-0145182Y-0067682D01*
Y-0064774D01*
X-0145271Y-0064326D01*
X-0145524Y-0063946D01*
X-0145904Y-0063693D01*
X-0146352Y-0063604D01*
X-0147237D01*
X-0147685Y-0063693D01*
X-0147779Y-0063755D01*
X-0147872Y-0063693D01*
X-014832Y-0063604D01*
X-0149206D01*
X-0149654Y-0063693D01*
X-0150033Y-0063946D01*
X-0150287Y-0064326D01*
X-0150376Y-0064774D01*
Y-0067825D01*
X-0150463Y-0067931D01*
X-0150631D01*
X-0151087Y-0067467D01*
Y-0064774D01*
X-0151176Y-0064326D01*
X-0151382Y-0064017D01*
Y-0063636D01*
X-0151479Y-0063148D01*
X-0151755Y-0062735D01*
X-0154076Y-0060414D01*
X-0153958Y-0059825D01*
X-0153794Y-0059756D01*
X-0153344Y-0059306D01*
X-01531Y-0058718D01*
Y-005855D01*
X-0152581Y-0058447D01*
X-015212Y-0058139D01*
X-0151812Y-0057678D01*
X-0151704Y-0057134D01*
Y-0055514D01*
X-0141167Y-0044977D01*
X-0139801D01*
X-0139671Y-0045171D01*
X-0138921Y-0045921D01*
X-013859Y-0046142D01*
X-01382Y-004622D01*
X-01277Y-004622D01*
X-012731Y-0046142D01*
X-0126979Y-0045921D01*
X-0126379Y-0045321D01*
X-0126158Y-004499D01*
X-012608Y-00446D01*
Y-0033922D01*
X-0124878Y-003272D01*
X-01112D01*
X-011081Y-0032642D01*
X-0110479Y-0032421D01*
X-0110178Y-003212D01*
X-01058D01*
X-010541Y-0032042D01*
X-0105079Y-0031821D01*
X-0104779Y-0031521D01*
X-0104558Y-003119D01*
X-010448Y-00308D01*
Y-0027741D01*
X-0102559Y-002582D01*
X-00998D01*
X-009941Y-0025742D01*
X-0099079Y-0025521D01*
X-0098791Y-0025233D01*
X-009872Y-0025186D01*
X-0098673Y-0025115D01*
X-0098479Y-0024921D01*
X-0098258Y-002459D01*
X-0098246Y-0024529D01*
X-0095258D01*
X-0095176Y-0024611D01*
X-0094478Y-00249D01*
X-0093722D01*
X-0093024Y-0024611D01*
X-0092489Y-0024076D01*
X-00922Y-0023378D01*
Y-0022622D01*
X-0092489Y-0021924D01*
X-0093024Y-0021389D01*
X-0093722Y-00211D01*
X-0094478D01*
X-0095176Y-0021389D01*
X-0095258Y-0021471D01*
X-0098246D01*
X-0098258Y-002141D01*
X-0098479Y-0021079D01*
X-0098673Y-0020885D01*
X-009872Y-0020814D01*
X-0098791Y-0020767D01*
X-0099979Y-0019579D01*
X-010031Y-0019358D01*
X-01007Y-001928D01*
X-0110178D01*
X-0112491Y-0016967D01*
X-011251Y-0016939D01*
X-0112537Y-0016921D01*
X-0112879Y-0016579D01*
X-011321Y-0016358D01*
X-01136Y-001628D01*
X-01208D01*
X-012119Y-0016358D01*
X-0121521Y-0016579D01*
X-0121625Y-0016683D01*
X-0122009Y-0016939D01*
X-0122265Y-0017323D01*
X-0126022Y-002108D01*
X-0135815D01*
X-013596Y-0021052D01*
X-0142899D01*
X-0159732Y-0004219D01*
X-0160228Y-0003887D01*
X-0160813Y-0003771D01*
X-0165311D01*
X-0165482Y-00037D01*
X-0166118D01*
X-0166706Y-0003944D01*
X-0167156Y-0004394D01*
X-01674Y-0004982D01*
Y-0005618D01*
X-0167156Y-0006206D01*
X-0166706Y-0006656D01*
X-0166118Y-00069D01*
X-0165482D01*
X-0165311Y-0006829D01*
X-0161447D01*
X-014522Y-0023057D01*
Y-00263D01*
X-0145142Y-002669D01*
X-0144921Y-0027021D01*
X-0144603Y-0027338D01*
X-0144587Y-0027363D01*
X-0144562Y-002738D01*
X-0144321Y-0027621D01*
X-014399Y-0027842D01*
X-01436Y-002792D01*
X-0135622D01*
X-013412Y-0029422D01*
Y-003064D01*
X-013462Y-0030839D01*
X-0134686Y-0030773D01*
X-0134813Y-0030582D01*
X-0135004Y-0030454D01*
X-0135079Y-0030379D01*
X-013541Y-0030158D01*
X-01358Y-003008D01*
X-01436D01*
X-014399Y-0030158D01*
X-0144321Y-0030379D01*
X-0144396Y-0030454D01*
X-0144587Y-0030582D01*
X-0144714Y-0030773D01*
X-0144922Y-003098D01*
X-014871D01*
Y-00284D01*
X-0148869Y-00276D01*
X-0149322Y-0026922D01*
X-0170022Y-0006222D01*
X-01707Y-0005769D01*
X-01715Y-000561D01*
X-01715Y-000561D01*
X-0182134D01*
X-0188687Y0000943D01*
X-018855Y0001454D01*
Y0002546D01*
X-0188833Y0003602D01*
X-018938Y0004548D01*
X-0190152Y000532D01*
X-0191098Y0005867D01*
X-0192154Y000615D01*
X-0193246D01*
X-0194302Y0005867D01*
X-0195248Y000532D01*
X-019602Y0004548D01*
X-0196567Y0003602D01*
X-019685Y0002546D01*
Y0001454D01*
X-0196567Y0000398D01*
X-019602Y-0000548D01*
X-0195248Y-0001321D01*
X-0194302Y-0001867D01*
X-0193246Y-000215D01*
X-0192154D01*
X-0191643Y-0002013D01*
X-0184652Y-0009004D01*
X-0184859Y-0009504D01*
X-0186331D01*
X-0186874Y-0009612D01*
X-0187336Y-000992D01*
X-0187644Y-0010381D01*
X-0187752Y-0010925D01*
Y-001134D01*
X-0191531D01*
X-019154Y-0011293D01*
X-0191832Y-0010857D01*
X-0192269Y-0010565D01*
X-0192784Y-0010462D01*
X-0196278D01*
X-0196793Y-0010565D01*
X-0197229Y-0010857D01*
X-0197521Y-0011293D01*
X-019753Y-001134D01*
X-020787D01*
X-0207879Y-0011293D01*
X-0208171Y-0010857D01*
X-0208607Y-0010565D01*
X-0209122Y-0010462D01*
X-0212616D01*
X-0213131Y-0010565D01*
X-0213568Y-0010857D01*
X-021386Y-0011293D01*
X-0213962Y-0011808D01*
Y-0013727D01*
X-021386Y-0014242D01*
X-0213568Y-0014679D01*
X-0213131Y-0014971D01*
X-0212616Y-0015073D01*
X-0209122D01*
X-0208607Y-0014971D01*
X-0208171Y-0014679D01*
X-0207879Y-0014242D01*
X-020787Y-0014195D01*
X-019753D01*
X-0197521Y-0014242D01*
X-0197229Y-0014679D01*
X-0196793Y-0014971D01*
X-0196278Y-0015073D01*
X-0192784D01*
X-0192269Y-0014971D01*
X-0191832Y-0014679D01*
X-019154Y-0014242D01*
X-0191531Y-0014195D01*
X-0187728D01*
X-0187644Y-0014619D01*
X-0187336Y-001508D01*
X-0187058Y-0015265D01*
X-018701Y-0015801D01*
X-0187024Y-0015844D01*
X-0187139Y-001592D01*
X-0187447Y-0016381D01*
X-0187555Y-0016925D01*
Y-0017073D01*
X-018811D01*
X-0188111Y-0017073D01*
X-0188657Y-0017181D01*
X-018912Y-0017491D01*
X-018912Y-0017491D01*
X-0189579Y-001795D01*
X-0189848D01*
X-0190491Y-0018216D01*
X-0190984Y-0018709D01*
X-0191235Y-0019315D01*
X-0191401Y-001938D01*
X-019175Y-0019444D01*
X-0191832Y-0019321D01*
X-0192269Y-0019029D01*
X-0192784Y-0018927D01*
X-0196278D01*
X-0196793Y-0019029D01*
X-0197229Y-0019321D01*
X-0197521Y-0019758D01*
X-019753Y-0019805D01*
X-020787D01*
X-0207879Y-0019758D01*
X-0208171Y-0019321D01*
X-0208607Y-0019029D01*
X-0209122Y-0018927D01*
X-0212616D01*
X-0213131Y-0019029D01*
X-0213568Y-0019321D01*
X-021386Y-0019758D01*
X-0213962Y-0020273D01*
Y-0022192D01*
X-021386Y-0022707D01*
X-0213568Y-0023144D01*
X-0213131Y-0023435D01*
X-0212616Y-0023538D01*
X-0209122D01*
X-0208607Y-0023435D01*
X-0208171Y-0023144D01*
X-0207879Y-0022707D01*
X-020787Y-002266D01*
X-019753D01*
X-0197521Y-0022707D01*
X-0197229Y-0023144D01*
X-0196793Y-0023435D01*
X-0196278Y-0023538D01*
X-0192784D01*
X-0192281Y-0023438D01*
X-0189909Y-0025809D01*
X-0189909Y-0025809D01*
X-0189446Y-0026119D01*
X-01889Y-0026227D01*
X-0187752D01*
Y-0026375D01*
X-0187644Y-0026919D01*
X-0187336Y-002738D01*
X-0186874Y-0027688D01*
X-0186331Y-0027796D01*
X-0183968D01*
X-0183425Y-0027688D01*
X-0182964Y-002738D01*
X-0182656Y-0026919D01*
X-0182547Y-0026375D01*
Y-002504D01*
X-01825Y-00248D01*
X-0182547Y-002456D01*
Y-0023225D01*
X-0182656Y-0022681D01*
X-0182964Y-002222D01*
X-0183397Y-0021931D01*
X-0183412Y-0021811D01*
X-0183364Y-0021415D01*
X-0183228Y-0021388D01*
X-0182767Y-002108D01*
X-0182459Y-0020619D01*
X-0182351Y-0020075D01*
Y-0016925D01*
X-0182459Y-0016381D01*
X-0182767Y-001592D01*
X-0183045Y-0015735D01*
X-0183093Y-0015199D01*
X-0183079Y-0015157D01*
X-0182964Y-001508D01*
X-0182656Y-0014619D01*
X-0182547Y-0014075D01*
Y-0010925D01*
X-0182656Y-0010381D01*
X-0182717Y-001029D01*
X-0182449Y-000979D01*
X-0181551D01*
X-0181283Y-001029D01*
X-0181344Y-0010381D01*
X-0181453Y-0010925D01*
Y-0014075D01*
X-0181344Y-0014619D01*
X-0181036Y-001508D01*
X-0180575Y-0015388D01*
X-0180032Y-0015496D01*
X-0177669D01*
X-0177126Y-0015388D01*
X-0176664Y-001508D01*
X-0176515Y-0014855D01*
X-0175912Y-0014751D01*
X-0171981Y-0018681D01*
X-0171485Y-0019013D01*
X-01709Y-0019129D01*
X-0168689D01*
X-0168518Y-00192D01*
X-0167882D01*
X-0167294Y-0018956D01*
X-0166844Y-0018506D01*
X-01666Y-0017918D01*
Y-0017282D01*
X-0166844Y-0016694D01*
X-0167294Y-0016244D01*
X-0167882Y-0016D01*
X-0168518D01*
X-0168689Y-0016071D01*
X-0170266D01*
X-0174919Y-0011419D01*
X-0175415Y-0011087D01*
X-0176Y-0010971D01*
X-0176248D01*
Y-0010925D01*
X-0176356Y-0010381D01*
X-0176417Y-001029D01*
X-017615Y-000979D01*
X-0172366D01*
X-015289Y-0029266D01*
Y-003098D01*
X-0155048D01*
X-0155225Y-0030945D01*
X-0158375D01*
X-0158552Y-003098D01*
X-0159078D01*
X-0166579Y-0023479D01*
X-016691Y-0023258D01*
X-01673Y-002318D01*
X-01745D01*
X-017489Y-0023258D01*
X-0175221Y-0023479D01*
X-0175821Y-0024079D01*
X-0176042Y-002441D01*
X-017612Y-00248D01*
Y-0024996D01*
X-0176176Y-002528D01*
Y-0031972D01*
X-017612Y-0032255D01*
Y-00323D01*
X-0176042Y-003269D01*
X-0176029Y-0032709D01*
X-0176022Y-0032747D01*
X-0175583Y-0033403D01*
X-0174927Y-0033842D01*
X-0174153Y-0033996D01*
X-0168247D01*
X-0167865Y-003392D01*
X-0164422D01*
X-0162621Y-0035721D01*
X-016229Y-0035942D01*
X-01619Y-003602D01*
X-0158951D01*
X-0158919Y-0036041D01*
X-0158375Y-0036149D01*
X-0155225D01*
X-0154681Y-0036041D01*
X-0154649Y-003602D01*
X-0152951D01*
X-0152919Y-0036041D01*
X-0152375Y-0036149D01*
X-0149225D01*
X-0148681Y-0036041D01*
X-0148649Y-003602D01*
X-0144922D01*
X-0144714Y-0036228D01*
X-0144587Y-0036418D01*
X-0144396Y-0036546D01*
X-0144321Y-0036621D01*
X-014399Y-0036842D01*
X-01436Y-003692D01*
X-01358D01*
X-013541Y-0036842D01*
X-0135079Y-0036621D01*
X-0135004Y-0036546D01*
X-0134813Y-0036418D01*
X-0134686Y-0036228D01*
X-013462Y-0036162D01*
X-013412Y-003636D01*
Y-0040477D01*
X-0134525Y-0040845D01*
X-0137675D01*
X-0137852Y-004088D01*
X-01385D01*
X-013889Y-0040958D01*
X-0139221Y-0041179D01*
X-0139671Y-0041629D01*
X-0139864Y-0041918D01*
X-0141801D01*
X-0142386Y-0042034D01*
X-0142882Y-0042366D01*
X-0153867Y-0053351D01*
X-01561D01*
Y-0052982D01*
X-0156344Y-0052394D01*
X-0156794Y-0051944D01*
X-0157382Y-00517D01*
X-0158018D01*
X-0158606Y-0051944D01*
X-0159056Y-0052394D01*
X-0159262Y-005289D01*
X-0159723Y-0053351D01*
X-0162275D01*
X-0162819Y-0053459D01*
X-016328Y-0053767D01*
X-0163588Y-0054228D01*
X-0163647Y-0054525D01*
X-0165856D01*
X-0169773Y-0050609D01*
Y-0049744D01*
X-0168247D01*
X-0167473Y-004959D01*
X-0166817Y-0049151D01*
X-0166378Y-0048495D01*
X-0166224Y-0047721D01*
Y-0041028D01*
X-0166378Y-0040253D01*
X-0166817Y-0039597D01*
X-0167473Y-0039158D01*
X-0168247Y-0039004D01*
X-0174153D01*
X-0174927Y-0039158D01*
X-0175583Y-0039597D01*
X-0175747Y-0039842D01*
X-01763Y-0039881D01*
X-0177191Y-0038991D01*
X-0177654Y-0038681D01*
X-01782Y-0038573D01*
X-01782Y-0038573D01*
X-0183752D01*
X-0183782Y-0038542D01*
X-0184246Y-0038232D01*
X-0184792Y-0038124D01*
X-0184792Y-0038124D01*
X-0188382D01*
X-0188589Y-0037814D01*
X-0189115Y-0037462D01*
X-0189735Y-0037339D01*
X-0193279D01*
X-019344Y-0037206D01*
Y-0037169D01*
X-0193787Y-0036331D01*
X-0194428Y-003569D01*
X-0195266Y-0035342D01*
X-0196173D01*
X-0197011Y-003569D01*
X-0197652Y-0036331D01*
X-0197999Y-0037169D01*
Y-0038076D01*
X-0197807Y-0038541D01*
X-0198042Y-0038982D01*
X-0198048Y-0038983D01*
X-0198511Y-0039292D01*
X-0198511Y-0039292D01*
X-0202209Y-0042991D01*
X-0202519Y-0043454D01*
X-0202627Y-0044D01*
X-0202627Y-0044D01*
Y-00542D01*
X-0202627Y-00542D01*
X-0202519Y-0054746D01*
X-0202209Y-0055209D01*
X-0198711Y-0058708D01*
X-0198711Y-0058708D01*
X-0198248Y-0059017D01*
X-0198171Y-0059032D01*
X-0197866Y-0059603D01*
X-0197999Y-0059925D01*
Y-0060831D01*
X-0197652Y-0061669D01*
X-0197011Y-006231D01*
X-0196173Y-0062657D01*
X-0195266D01*
X-0194428Y-006231D01*
X-0193787Y-0061669D01*
X-019344Y-0060831D01*
Y-0060794D01*
X-0193279Y-0060661D01*
X-0189735D01*
X-0189115Y-0060538D01*
X-0188589Y-0060186D01*
X-0188237Y-005966D01*
X-0188114Y-0059039D01*
Y-0058312D01*
X-0187614Y-0058105D01*
X-0186034Y-0059685D01*
X-0186034Y-0059685D01*
X-0185571Y-0059994D01*
X-0185196Y-0060069D01*
Y-0061032D01*
X-0185088Y-0061575D01*
X-018478Y-0062036D01*
X-0184319Y-0062344D01*
X-0183775Y-0062453D01*
X-0180625D01*
X-0180081Y-0062344D01*
X-017962Y-0062036D01*
X-0179312Y-0061575D01*
X-0179204Y-0061032D01*
Y-0058669D01*
X-0179312Y-0058126D01*
X-017962Y-0057665D01*
X-0180081Y-0057357D01*
X-0180625Y-0057248D01*
X-0183374D01*
X-0183375Y-0057248D01*
X-0183375Y-0057248D01*
X-0184433D01*
X-0186801Y-005488D01*
X-0187264Y-0054571D01*
X-018781Y-0054462D01*
X-0188119Y-0054113D01*
Y-0053626D01*
X-018822Y-0053121D01*
X-0188343Y-0052937D01*
X-018822Y-0052753D01*
X-0188119Y-0052248D01*
Y-0051657D01*
X-0188122Y-0051645D01*
X-0187805Y-0051259D01*
X-0184558D01*
X-0175415Y-0060401D01*
X-0175002Y-0060677D01*
X-0174514Y-0060774D01*
X-0168828D01*
X-0167848Y-0061754D01*
X-0167966Y-0062344D01*
X-0168206Y-0062444D01*
X-0168656Y-0062894D01*
X-01689Y-0063482D01*
Y-0064118D01*
X-016915Y-0064492D01*
X-0171775D01*
X-0172319Y-00646D01*
X-017278Y-0064909D01*
X-0173088Y-006537D01*
X-0173196Y-0065913D01*
Y-0068276D01*
X-0173088Y-0068819D01*
X-017278Y-006928D01*
X-0172319Y-0069588D01*
X-0171775Y-0069697D01*
X-0168625D01*
X-0168081Y-0069588D01*
X-016762Y-006928D01*
X-016759Y-0069235D01*
X-0166947Y-0069172D01*
X-0165556Y-0070563D01*
X-0165556Y-0070563D01*
X-0165093Y-0070872D01*
X-0164683Y-0070954D01*
X-0164746Y-007127D01*
Y-0072155D01*
X-0164657Y-0072603D01*
X-0164594Y-0072697D01*
X-0164657Y-007279D01*
X-0164746Y-0073238D01*
Y-0074124D01*
X-0164657Y-0074572D01*
X-0164594Y-0074665D01*
X-0164657Y-0074759D01*
X-0164746Y-0075207D01*
Y-0076092D01*
X-0164657Y-007654D01*
X-0164594Y-0076634D01*
X-0164657Y-0076727D01*
X-0164746Y-0077175D01*
Y-0078061D01*
X-0164657Y-0078509D01*
X-0164594Y-0078602D01*
X-0164657Y-0078696D01*
X-0164746Y-0079144D01*
Y-0080029D01*
X-0164657Y-0080477D01*
X-0164594Y-0080571D01*
X-0164657Y-0080664D01*
X-0164746Y-0081112D01*
Y-0081998D01*
X-0164657Y-0082446D01*
X-0164403Y-0082825D01*
X-0164024Y-0083079D01*
X-0163576Y-0083168D01*
X-0160667D01*
X-0160401Y-008335D01*
X-0160219Y-0083617D01*
Y-0086526D01*
X-0160129Y-0086973D01*
X-0159876Y-0087353D01*
X-0159496Y-0087607D01*
X-0159048Y-0087696D01*
X-0158163D01*
X-0157715Y-0087607D01*
X-0157621Y-0087544D01*
X-0157528Y-0087607D01*
X-015708Y-0087696D01*
X-0156194D01*
X-0155746Y-0087607D01*
X-0155653Y-0087544D01*
X-0155559Y-0087607D01*
X-0155111Y-0087696D01*
X-0154226D01*
X-0153778Y-0087607D01*
X-0153684Y-0087544D01*
X-0153591Y-0087607D01*
X-0153143Y-0087696D01*
X-0152257D01*
X-0151809Y-0087607D01*
X-0151716Y-0087544D01*
X-0151622Y-0087607D01*
X-0151174Y-0087696D01*
X-0150289D01*
X-0149841Y-0087607D01*
X-0149747Y-0087544D01*
X-0149654Y-0087607D01*
X-0149206Y-0087696D01*
X-014832D01*
X-0147872Y-0087607D01*
X-0147779Y-0087544D01*
X-0147685Y-0087607D01*
X-0147237Y-0087696D01*
X-0146352D01*
X-0145904Y-0087607D01*
X-0145524Y-0087353D01*
X-0145271Y-0086973D01*
X-0145182Y-0086526D01*
Y-0083617D01*
X-0144999Y-008335D01*
X-0144733Y-0083168D01*
X-0141824D01*
X-0141376Y-0083079D01*
X-0140997Y-0082825D01*
X-0140743Y-0082446D01*
X-0140654Y-0081998D01*
Y-0081112D01*
X-0140743Y-0080664D01*
X-0140805Y-0080571D01*
X-0140743Y-0080477D01*
X-0140654Y-0080029D01*
Y-0079144D01*
X-0140573Y-0079045D01*
X-0138673D01*
X-0138209Y-0079509D01*
X-0138209Y-0079509D01*
X-0137746Y-0079819D01*
X-01372Y-0079927D01*
X-01372Y-0079927D01*
X-0136101D01*
Y-0080075D01*
X-0135993Y-0080619D01*
X-0135685Y-008108D01*
X-0135224Y-0081388D01*
X-013468Y-0081496D01*
X-0132318D01*
X-0131774Y-0081388D01*
X-0131313Y-008108D01*
X-0131005Y-0080619D01*
X-0130897Y-0080075D01*
Y-0079851D01*
X-0130746Y-0079527D01*
X-0130236Y-0079387D01*
X-0129802Y-0079639D01*
Y-0080075D01*
X-0129694Y-0080619D01*
X-0129386Y-008108D01*
X-0128925Y-0081388D01*
X-0128381Y-0081496D01*
X-0126019D01*
X-0125475Y-0081388D01*
X-0125014Y-008108D01*
X-0124706Y-0080619D01*
X-012462Y-0080185D01*
X-01242Y-0079927D01*
X-0123654Y-0079819D01*
X-0123191Y-0079509D01*
X-0122272Y-007859D01*
X-0121859Y-0078866D01*
X-0121353Y-0078966D01*
X-0118795D01*
X-0118289Y-0078866D01*
X-0117861Y-0078579D01*
X-0117574Y-0078151D01*
X-0117474Y-0077646D01*
Y-0075874D01*
X-0117574Y-0075369D01*
X-0117861Y-007494D01*
X-0118289Y-0074654D01*
X-0118795Y-0074553D01*
X-0121353D01*
X-0121438Y-007457D01*
X-0121684Y-0074109D01*
X-0120782Y-0073207D01*
X-0118921D01*
X-0118415Y-0073106D01*
X-0117987Y-007282D01*
X-01177Y-0072391D01*
X-01176Y-0071886D01*
Y-0070114D01*
X-0117175Y-0069788D01*
X-0116958Y-006976D01*
X-0105709Y-0081009D01*
X-0105709Y-0081009D01*
X-0105246Y-0081319D01*
X-01047Y-0081427D01*
X-0086188D01*
X-0086138Y-0081927D01*
X-0086444Y-0081988D01*
X-0086937Y-0082318D01*
X-0087267Y-0082811D01*
X-0087383Y-0083394D01*
Y-0085411D01*
X-0109389D01*
X-0109389Y-0085411D01*
X-0109935Y-008552D01*
X-0110398Y-0085829D01*
X-0111161Y-0086592D01*
X-0111623Y-0086401D01*
Y-0082706D01*
X-0110921D01*
X-0110415Y-0082606D01*
X-0109987Y-008232D01*
X-01097Y-0081891D01*
X-01096Y-0081386D01*
Y-0079614D01*
X-01097Y-0079109D01*
X-0109987Y-007868D01*
X-0110415Y-0078394D01*
X-0110921Y-0078294D01*
X-0113479D01*
X-0113985Y-0078394D01*
X-0114413Y-007868D01*
X-01147Y-0079109D01*
X-01148Y-0079614D01*
Y-0081386D01*
X-01147Y-0081891D01*
X-0114478Y-0082223D01*
Y-0087553D01*
X-0114775Y-0087612D01*
X-0115236Y-008792D01*
X-0115544Y-0088381D01*
X-0115653Y-0088925D01*
Y-0091477D01*
X-0116247Y-0092072D01*
X-0116747Y-0091865D01*
Y-0088925D01*
X-0116856Y-0088381D01*
X-0117164Y-008792D01*
X-0117625Y-0087612D01*
X-0118168Y-0087504D01*
X-0120531D01*
X-0121074Y-0087612D01*
X-0121536Y-008792D01*
X-0121844Y-0088381D01*
X-0121952Y-0088925D01*
Y-008911D01*
X-0122578D01*
X-0122995Y-0088937D01*
X-0123632D01*
X-012422Y-0089181D01*
X-012467Y-0089631D01*
X-012474Y-0089802D01*
X-0126009Y-0091071D01*
X-0174817D01*
X-0175948Y-0089939D01*
Y-0088667D01*
X-0170157Y-0082876D01*
X-0169825Y-0082379D01*
X-0169709Y-0081794D01*
Y-0080281D01*
X-01696Y-0080018D01*
Y-0079382D01*
X-0169844Y-0078794D01*
X-0170294Y-0078344D01*
X-0170882Y-00781D01*
X-0171518D01*
X-0172106Y-0078344D01*
X-0172556Y-0078794D01*
X-01728Y-0079382D01*
Y-0080018D01*
X-0172768Y-0080096D01*
Y-0081161D01*
X-0178111Y-0086504D01*
X-0179732D01*
X-0180275Y-0086612D01*
X-0180736Y-008692D01*
X-0181044Y-0087381D01*
X-0181152Y-0087925D01*
Y-0091075D01*
X-0181044Y-0091619D01*
X-0180736Y-009208D01*
X-0180275Y-0092388D01*
X-0179732Y-0092496D01*
X-0177717D01*
X-0176532Y-0093681D01*
X-0176036Y-0094013D01*
X-017545Y-0094129D01*
X-0125376D01*
X-0124791Y-0094013D01*
X-0124294Y-0093681D01*
X-0122578Y-0091965D01*
X-0121952D01*
Y-0092075D01*
X-0121844Y-0092619D01*
X-0121536Y-009308D01*
X-0121074Y-0093388D01*
X-0120531Y-0093496D01*
X-0118378D01*
X-0118171Y-0093996D01*
X-0119848Y-0095673D01*
X-01458D01*
X-01458Y-0095673D01*
X-0146346Y-0095781D01*
X-0146809Y-0096091D01*
X-0151442Y-0100723D01*
X-0151598Y-0100633D01*
X-0152654Y-010035D01*
X-0153746D01*
X-0154802Y-0100633D01*
X-0155748Y-010118D01*
X-015652Y-0101952D01*
X-0157067Y-0102898D01*
X-015735Y-0103954D01*
Y-0105046D01*
X-0157067Y-0106102D01*
X-015652Y-0107048D01*
X-0155748Y-010782D01*
X-0154802Y-0108367D01*
X-0153746Y-010865D01*
X-0152654D01*
X-0151598Y-0108367D01*
X-0150652Y-010782D01*
X-014988Y-0107048D01*
X-0149333Y-0106102D01*
X-014905Y-0105046D01*
Y-0103954D01*
X-0149333Y-0102898D01*
X-0149423Y-0102742D01*
X-0145209Y-0098527D01*
X-0119257D01*
X-0119257Y-0098527D01*
X-011871Y-0098419D01*
X-0118247Y-0098109D01*
X-0113634Y-0093496D01*
X-0111869D01*
X-0111326Y-0093388D01*
X-0110864Y-009308D01*
X-0110556Y-0092619D01*
X-0110448Y-0092075D01*
Y-0089917D01*
X-0108798Y-0088266D01*
X-0087383D01*
Y-0090284D01*
X-0087267Y-0090866D01*
X-0086937Y-0091359D01*
X-0086444Y-0091689D01*
X-0085861Y-0091805D01*
X-0082909D01*
X-0082327Y-0091689D01*
X-0081885Y-0091394D01*
X-0081444Y-0091689D01*
X-0081338Y-009171D01*
X-00813Y-0091782D01*
Y-0092418D01*
X-008147Y-0092673D01*
X-00938D01*
X-00938Y-0092673D01*
X-0094346Y-0092781D01*
X-0094809Y-0093091D01*
X-0094809Y-0093091D01*
X-0098541Y-0096823D01*
X-010695D01*
X-0107496Y-0096931D01*
X-0107959Y-0097241D01*
X-0107959Y-0097241D01*
X-0111442Y-0100723D01*
X-0111598Y-0100633D01*
X-0112654Y-010035D01*
X-0113746D01*
X-0114802Y-0100633D01*
X-0115748Y-010118D01*
X-0116521Y-0101952D01*
X-0117067Y-0102898D01*
X-011735Y-0103954D01*
Y-0105046D01*
X-0117067Y-0106102D01*
X-0116521Y-0107048D01*
X-0115748Y-010782D01*
X-0114802Y-0108367D01*
X-0113746Y-010865D01*
X-0112654D01*
X-0111598Y-0108367D01*
X-0110652Y-010782D01*
X-010988Y-0107048D01*
X-0109333Y-0106102D01*
X-010905Y-0105046D01*
Y-0103954D01*
X-0109333Y-0102898D01*
X-0109423Y-0102742D01*
X-0106359Y-0099677D01*
X-009795D01*
X-009795Y-0099677D01*
X-0097435Y-0099575D01*
X-0097404Y-0099597D01*
X-0097229Y-0100076D01*
X-0099245Y-0102092D01*
X-0099835Y-010203D01*
X-0099879Y-0101952D01*
X-0100652Y-010118D01*
X-0101598Y-0100633D01*
X-0102654Y-010035D01*
X-0103746D01*
X-0104802Y-0100633D01*
X-0105748Y-010118D01*
X-010652Y-0101952D01*
X-0107067Y-0102898D01*
X-010735Y-0103954D01*
Y-0105046D01*
X-0107067Y-0106102D01*
X-010652Y-0107048D01*
X-0105748Y-010782D01*
X-0104802Y-0108367D01*
X-0103746Y-010865D01*
X-0102654D01*
X-0101598Y-0108367D01*
X-0100652Y-010782D01*
X-0099879Y-0107048D01*
X-0099333Y-0106102D01*
X-0099076Y-0105144D01*
X-009885D01*
X-009885Y-0105144D01*
X-0098304Y-0105035D01*
X-0097841Y-0104726D01*
X-0097812Y-0104696D01*
X-009735Y-0104887D01*
Y-0105046D01*
X-0097067Y-0106102D01*
X-0096521Y-0107048D01*
X-0095748Y-010782D01*
X-0094802Y-0108367D01*
X-0093746Y-010865D01*
X-0092654D01*
X-0091598Y-0108367D01*
X-0090652Y-010782D01*
X-008988Y-0107048D01*
X-0089333Y-0106102D01*
X-008905Y-0105046D01*
Y-0103954D01*
X-0089068Y-0103887D01*
X-0087049Y-0101868D01*
X-0086649Y-0102175D01*
X-0087067Y-0102898D01*
X-008735Y-0103954D01*
Y-0105046D01*
X-0087067Y-0106102D01*
X-008652Y-0107048D01*
X-0085748Y-010782D01*
X-0084802Y-0108367D01*
X-0083746Y-010865D01*
X-0082654D01*
X-0081598Y-0108367D01*
X-0080652Y-010782D01*
X-0079879Y-0107048D01*
X-0079333Y-0106102D01*
X-007905Y-0105046D01*
Y-0103954D01*
X-0079333Y-0102898D01*
X-0079423Y-0102742D01*
X-0077909Y-0101227D01*
X-0066449D01*
X-0066258Y-0101689D01*
X-0066521Y-0101952D01*
X-0067067Y-0102898D01*
X-006735Y-0103954D01*
Y-0105046D01*
X-0067067Y-0106102D01*
X-0066521Y-0107048D01*
X-0065748Y-010782D01*
X-0064802Y-0108367D01*
X-0063746Y-010865D01*
X-0062654D01*
X-0061598Y-0108367D01*
X-0060652Y-010782D01*
X-0059879Y-0107048D01*
X-0059333Y-0106102D01*
X-005905Y-0105046D01*
Y-0104369D01*
X-0057586Y-0102905D01*
X-0057138Y-0103164D01*
X-005735Y-0103954D01*
Y-0105046D01*
X-0057067Y-0106102D01*
X-005652Y-0107048D01*
X-0055748Y-010782D01*
X-0054802Y-0108367D01*
X-0053746Y-010865D01*
X-0052654D01*
X-0051598Y-0108367D01*
X-0050652Y-010782D01*
X-004988Y-0107048D01*
X-0049333Y-0106102D01*
X-004905Y-0105046D01*
Y-0103954D01*
X-0049333Y-0102898D01*
X-0049423Y-0102742D01*
X-0045109Y-0098427D01*
X-00432D01*
X-00432Y-0098427D01*
X-0042654Y-0098319D01*
X-0042191Y-0098009D01*
X-0038376Y-0094194D01*
X-0038376Y-0094194D01*
X-0038066Y-0093731D01*
X-0037958Y-0093185D01*
X-0037958Y-0093185D01*
Y-0091805D01*
X-0037909D01*
X-0037326Y-0091689D01*
X-0036885Y-0091394D01*
X-0036444Y-0091689D01*
X-0035861Y-0091805D01*
X-0035852D01*
Y-0095133D01*
X-0041442Y-0100723D01*
X-0041598Y-0100633D01*
X-0042654Y-010035D01*
X-0043746D01*
X-0044802Y-0100633D01*
X-0045748Y-010118D01*
X-0046521Y-0101952D01*
X-0047067Y-0102898D01*
X-004735Y-0103954D01*
Y-0105046D01*
X-0047067Y-0106102D01*
X-0046521Y-0107048D01*
X-0045748Y-010782D01*
X-0044802Y-0108367D01*
X-0043746Y-010865D01*
X-0042654D01*
X-0041598Y-0108367D01*
X-0040652Y-010782D01*
X-003988Y-0107048D01*
X-0039333Y-0106102D01*
X-003905Y-0105046D01*
Y-0103954D01*
X-0039333Y-0102898D01*
X-0039423Y-0102742D01*
X-0033415Y-0096734D01*
X-0033415Y-0096734D01*
X-0033106Y-0096271D01*
X-0032997Y-0095725D01*
Y-0091805D01*
X-0032909D01*
X-0032326Y-0091689D01*
X-0031885Y-0091394D01*
X-0031444Y-0091689D01*
X-0030861Y-0091805D01*
X-0030812D01*
Y-0095594D01*
X-0033209Y-0097991D01*
X-0033519Y-0098454D01*
X-0033627Y-0099D01*
X-0033627Y-0099D01*
Y-010035D01*
X-0033746D01*
X-0034802Y-0100633D01*
X-0035748Y-010118D01*
X-003652Y-0101952D01*
X-0037067Y-0102898D01*
X-003735Y-0103954D01*
Y-0105046D01*
X-0037067Y-0106102D01*
X-003652Y-0107048D01*
X-0035748Y-010782D01*
X-0034802Y-0108367D01*
X-0033746Y-010865D01*
X-0032654D01*
X-0031598Y-0108367D01*
X-0030652Y-010782D01*
X-002988Y-0107048D01*
X-0029333Y-0106102D01*
X-002905Y-0105046D01*
Y-0103954D01*
X-0029333Y-0102898D01*
X-002988Y-0101952D01*
X-0030652Y-010118D01*
X-0030773Y-010111D01*
Y-0099591D01*
X-0028376Y-0097194D01*
X-0028376Y-0097194D01*
X-0028066Y-0096731D01*
X-0027958Y-0096185D01*
Y-0091805D01*
X-0027909D01*
X-0027327Y-0091689D01*
X-0026885Y-0091394D01*
X-0026444Y-0091689D01*
X-0025861Y-0091805D01*
X-0025813D01*
Y-0101244D01*
X-002652Y-0101952D01*
X-0027067Y-0102898D01*
X-002735Y-0103954D01*
Y-0105046D01*
X-0027067Y-0106102D01*
X-002652Y-0107048D01*
X-0025748Y-010782D01*
X-0024802Y-0108367D01*
X-0023746Y-010865D01*
X-0022654D01*
X-0021598Y-0108367D01*
X-0020652Y-010782D01*
X-001988Y-0107048D01*
X-0019333Y-0106102D01*
X-001905Y-0105046D01*
Y-0103954D01*
X-0019333Y-0102898D01*
X-001988Y-0101952D01*
X-0020652Y-010118D01*
X-0021598Y-0100633D01*
X-0022654Y-010035D01*
X-0022958D01*
Y-0091805D01*
X-0022909D01*
X-0022327Y-0091689D01*
X-0021833Y-0091359D01*
X-0021503Y-0090866D01*
X-0021387Y-0090284D01*
Y-0083394D01*
X-0021503Y-0082811D01*
X-0021833Y-0082318D01*
X-0022327Y-0081988D01*
X-0022909Y-0081872D01*
X-0025861D01*
X-0026444Y-0081988D01*
X-0026885Y-0082283D01*
X-0027327Y-0081988D01*
X-0027909Y-0081872D01*
X-0030861D01*
X-0031444Y-0081988D01*
X-0031885Y-0082283D01*
X-0032326Y-0081988D01*
X-0032909Y-0081872D01*
X-0032973D01*
Y-0081335D01*
X-00328Y-0080918D01*
Y-0080282D01*
X-0033044Y-0079694D01*
X-0033494Y-0079244D01*
X-0034082Y-0079D01*
X-0034718D01*
X-0035306Y-0079244D01*
X-0035756Y-0079694D01*
X-0036Y-0080282D01*
Y-0080918D01*
X-0035827Y-0081335D01*
Y-0081872D01*
X-0035861D01*
X-0036444Y-0081988D01*
X-0036885Y-0082283D01*
X-0037326Y-0081988D01*
X-0037909Y-0081872D01*
X-0038062D01*
X-0038111Y-0081624D01*
X-003842Y-0081161D01*
X-0038421Y-0081161D01*
X-0040591Y-0078991D01*
X-0041054Y-0078681D01*
X-00416Y-0078573D01*
X-00416Y-0078573D01*
X-0063301D01*
X-0063492Y-0078111D01*
X-0028376Y-0042994D01*
X-0028376Y-0042994D01*
X-0028066Y-0042531D01*
X-0027958Y-0041985D01*
Y-0020939D01*
X-0027909D01*
X-0027327Y-0020823D01*
X-0027103Y-0020674D01*
X-0026721Y-002102D01*
X-0026958Y-0021591D01*
Y-0022347D01*
X-0026669Y-0023045D01*
X-0026134Y-0023579D01*
X-0025436Y-0023869D01*
X-002468D01*
X-0023982Y-0023579D01*
X-0023447Y-0023045D01*
X-0023158Y-0022347D01*
Y-0021591D01*
X-0023161Y-0021584D01*
X-0023073Y-002114D01*
Y-0020939D01*
X-0022909D01*
X-0022327Y-0020823D01*
X-0021833Y-0020493D01*
X-0021503Y-0019999D01*
X-0021387Y-0019417D01*
Y-0012528D01*
X-0021503Y-0011945D01*
X-0021833Y-0011452D01*
X-0022327Y-0011122D01*
X-0022909Y-0011006D01*
X-0022958D01*
Y-0010276D01*
X-0014786Y-0002104D01*
X-0014275Y-0002172D01*
X-0011125D01*
X-0010453Y-0002083D01*
X-0009827Y-0001824D01*
X-0009289Y-0001411D01*
X-0008876Y-0000873D01*
X-0008617Y-0000247D01*
X-0008528Y0000425D01*
Y0003575D01*
X-0008617Y0004247D01*
X-0008876Y0004873D01*
X-0009289Y0005411D01*
X-0009827Y0005824D01*
X-0010453Y0006083D01*
X-0011125Y0006172D01*
D02*
G37*
G36*
X0000719Y0007299D02*
X-0000719D01*
X-0002129Y0007019D01*
X-0003458Y0006469D01*
X-0004653Y000567D01*
X-000567Y0004653D01*
X-0006469Y0003458D01*
X-0007019Y0002129D01*
X-0007299Y0000719D01*
Y-0000719D01*
X-0007019Y-0002129D01*
X-0006469Y-0003458D01*
X-000567Y-0004653D01*
X-0004653Y-000567D01*
X-0003458Y-0006469D01*
X-0002129Y-0007019D01*
X-0000719Y-0007299D01*
X0000719D01*
X0002129Y-0007019D01*
X0003458Y-0006469D01*
X0004653Y-000567D01*
X000567Y-0004653D01*
X0006469Y-0003458D01*
X0007019Y-0002129D01*
X0007299Y-0000719D01*
Y0000719D01*
X0007019Y0002129D01*
X0006469Y0003458D01*
X000567Y0004653D01*
X0004653Y000567D01*
X0003458Y0006469D01*
X0002129Y0007019D01*
X0000719Y0007299D01*
D02*
G37*
G36*
X-0127625Y-0047047D02*
X-0130775D01*
X-0131319Y-0047156D01*
X-013178Y-0047464D01*
X-0132088Y-0047925D01*
X-0132196Y-0048469D01*
Y-0050831D01*
X-0132088Y-0051375D01*
X-013178Y-0051836D01*
X-0131319Y-0052144D01*
X-0130775Y-0052252D01*
X-0127625D01*
X-0127081Y-0052144D01*
X-012662Y-0051836D01*
X-0126398Y-0051502D01*
X-0123688D01*
Y-0051681D01*
X-012358Y-0052225D01*
X-0123272Y-0052686D01*
X-0122811Y-0052994D01*
X-0122267Y-0053102D01*
X-0118133D01*
X-0117589Y-0052994D01*
X-0117128Y-0052686D01*
X-011682Y-0052225D01*
X-0116712Y-0051681D01*
Y-0049319D01*
X-011682Y-0048775D01*
X-0117128Y-0048314D01*
X-0117589Y-0048006D01*
X-0118133Y-0047898D01*
X-0122267D01*
X-0122811Y-0048006D01*
X-0123272Y-0048314D01*
X-0123494Y-0048647D01*
X-0126204D01*
Y-0048469D01*
X-0126312Y-0047925D01*
X-012662Y-0047464D01*
X-0127081Y-0047156D01*
X-0127625Y-0047047D01*
D02*
G37*
G36*
X-0183668Y-0074504D02*
X-0186031D01*
X-0186574Y-0074612D01*
X-0187036Y-007492D01*
X-0187344Y-0075381D01*
X-0187435Y-007584D01*
X-0192031D01*
X-019204Y-0075793D01*
X-0192332Y-0075357D01*
X-0192769Y-0075065D01*
X-0193284Y-0074962D01*
X-0196778D01*
X-0197293Y-0075065D01*
X-0197729Y-0075357D01*
X-0198021Y-0075793D01*
X-019803Y-007584D01*
X-0208369D01*
X-0208379Y-0075793D01*
X-0208671Y-0075357D01*
X-0209107Y-0075065D01*
X-0209622Y-0074962D01*
X-0213116D01*
X-0213631Y-0075065D01*
X-0214068Y-0075357D01*
X-021436Y-0075793D01*
X-0214462Y-0076308D01*
Y-0078227D01*
X-021436Y-0078742D01*
X-0214068Y-0079179D01*
X-0213631Y-0079471D01*
X-0213116Y-0079573D01*
X-0209622D01*
X-0209107Y-0079471D01*
X-0208671Y-0079179D01*
X-0208379Y-0078742D01*
X-0208369Y-0078695D01*
X-019803D01*
X-0198021Y-0078742D01*
X-0197729Y-0079179D01*
X-0197293Y-0079471D01*
X-0196778Y-0079573D01*
X-0193284D01*
X-0192769Y-0079471D01*
X-0192332Y-0079179D01*
X-019204Y-0078742D01*
X-0192031Y-0078695D01*
X-0187452D01*
Y-0079075D01*
X-0187344Y-0079619D01*
X-0187036Y-008008D01*
X-0186758Y-0080265D01*
X-018671Y-0080801D01*
X-0186724Y-0080844D01*
X-0186839Y-008092D01*
X-0187147Y-0081381D01*
X-0187255Y-0081925D01*
Y-0084305D01*
X-0192031D01*
X-019204Y-0084258D01*
X-0192332Y-0083821D01*
X-0192769Y-0083529D01*
X-0193284Y-0083427D01*
X-0196778D01*
X-0197293Y-0083529D01*
X-0197729Y-0083821D01*
X-0198021Y-0084258D01*
X-019803Y-0084305D01*
X-0208369D01*
X-0208379Y-0084258D01*
X-0208671Y-0083821D01*
X-0209107Y-0083529D01*
X-0209622Y-0083427D01*
X-0213116D01*
X-0213631Y-0083529D01*
X-0214068Y-0083821D01*
X-021436Y-0084258D01*
X-0214462Y-0084773D01*
Y-0086692D01*
X-021436Y-0087207D01*
X-0214068Y-0087643D01*
X-0213631Y-0087935D01*
X-0213116Y-0088038D01*
X-0209622D01*
X-0209107Y-0087935D01*
X-0208671Y-0087643D01*
X-0208379Y-0087207D01*
X-0208369Y-008716D01*
X-019803D01*
X-0198021Y-0087207D01*
X-0197729Y-0087643D01*
X-0197293Y-0087935D01*
X-0196778Y-0088038D01*
X-0193284D01*
X-0192769Y-0087935D01*
X-0192332Y-0087643D01*
X-019204Y-0087207D01*
X-0192031Y-008716D01*
X-0187751D01*
X-0187399Y-008766D01*
X-0187452Y-0087925D01*
Y-0091075D01*
X-0187344Y-0091619D01*
X-0187036Y-009208D01*
X-0186574Y-0092388D01*
X-0186439Y-0092641D01*
X-0186556Y-0092924D01*
Y-0093561D01*
X-0186313Y-0094149D01*
X-0185863Y-0094599D01*
X-0185275Y-0094842D01*
X-0184638D01*
X-018405Y-0094599D01*
X-01836Y-0094149D01*
X-0183356Y-0093561D01*
Y-0092924D01*
X-0183125Y-0092388D01*
X-0182664Y-009208D01*
X-0182356Y-0091619D01*
X-0182247Y-0091075D01*
Y-0087925D01*
X-0182356Y-0087381D01*
X-0182664Y-008692D01*
X-0182779Y-0086844D01*
X-0182793Y-0086801D01*
X-0182745Y-0086265D01*
X-0182467Y-008608D01*
X-0182159Y-0085619D01*
X-0182051Y-0085075D01*
Y-0081925D01*
X-0182159Y-0081381D01*
X-0182467Y-008092D01*
X-0182745Y-0080735D01*
X-0182793Y-0080199D01*
X-0182779Y-0080156D01*
X-0182664Y-008008D01*
X-0182356Y-0079619D01*
X-0182247Y-0079075D01*
Y-0075925D01*
X-0182356Y-0075381D01*
X-0182664Y-007492D01*
X-0183125Y-0074612D01*
X-0183668Y-0074504D01*
D02*
G37*
G36*
X-0118795Y-0082034D02*
X-0121353D01*
X-0121859Y-0082134D01*
X-0122287Y-008242D01*
X-0122549Y-0082813D01*
X-0122603D01*
X-0123073Y-0082618D01*
X-0123709D01*
X-0124297Y-0082862D01*
X-0124747Y-0083312D01*
X-0124991Y-00839D01*
Y-0084537D01*
X-0124747Y-0085125D01*
X-0124297Y-0085575D01*
X-0123709Y-0085818D01*
X-0123073D01*
X-0122708Y-0085668D01*
X-0122549D01*
X-0122287Y-008606D01*
X-0121859Y-0086346D01*
X-0121353Y-0086447D01*
X-0118795D01*
X-0118289Y-0086346D01*
X-0117861Y-008606D01*
X-0117574Y-0085631D01*
X-0117474Y-0085126D01*
Y-0083354D01*
X-0117574Y-0082849D01*
X-0117861Y-008242D01*
X-0118289Y-0082134D01*
X-0118795Y-0082034D01*
D02*
G37*
G36*
X-0132654Y-010035D02*
X-0133746D01*
X-0134802Y-0100633D01*
X-0135748Y-010118D01*
X-0136521Y-0101952D01*
X-0137067Y-0102898D01*
X-013735Y-0103954D01*
Y-0105046D01*
X-0137067Y-0106102D01*
X-0136521Y-0107048D01*
X-0135748Y-010782D01*
X-0134802Y-0108367D01*
X-0133746Y-010865D01*
X-0132654D01*
X-0131598Y-0108367D01*
X-0130652Y-010782D01*
X-0129879Y-0107048D01*
X-0129333Y-0106102D01*
X-012905Y-0105046D01*
Y-0103954D01*
X-0129333Y-0102898D01*
X-0129879Y-0101952D01*
X-0130652Y-010118D01*
X-0131598Y-0100633D01*
X-0132654Y-010035D01*
D02*
G37*
G36*
X-0142654D02*
X-0143746D01*
X-0144802Y-0100633D01*
X-0145748Y-010118D01*
X-014652Y-0101952D01*
X-0147067Y-0102898D01*
X-014735Y-0103954D01*
Y-0105046D01*
X-0147067Y-0106102D01*
X-014652Y-0107048D01*
X-0145748Y-010782D01*
X-0144802Y-0108367D01*
X-0143746Y-010865D01*
X-0142654D01*
X-0141598Y-0108367D01*
X-0140652Y-010782D01*
X-013988Y-0107048D01*
X-0139333Y-0106102D01*
X-013905Y-0105046D01*
Y-0103954D01*
X-0139333Y-0102898D01*
X-013988Y-0101952D01*
X-0140652Y-010118D01*
X-0141598Y-0100633D01*
X-0142654Y-010035D01*
D02*
G37*
G36*
X-0162654D02*
X-0163746D01*
X-0164802Y-0100633D01*
X-0165748Y-010118D01*
X-0166521Y-0101952D01*
X-0167067Y-0102898D01*
X-016735Y-0103954D01*
Y-0105046D01*
X-0167067Y-0106102D01*
X-0166521Y-0107048D01*
X-0165748Y-010782D01*
X-0164802Y-0108367D01*
X-0163746Y-010865D01*
X-0162654D01*
X-0161598Y-0108367D01*
X-0160652Y-010782D01*
X-015988Y-0107048D01*
X-0159333Y-0106102D01*
X-015905Y-0105046D01*
Y-0103954D01*
X-0159333Y-0102898D01*
X-015988Y-0101952D01*
X-0160652Y-010118D01*
X-0161598Y-0100633D01*
X-0162654Y-010035D01*
D02*
G37*
G36*
X-0172654D02*
X-0173746D01*
X-0174802Y-0100633D01*
X-0175748Y-010118D01*
X-0176521Y-0101952D01*
X-0177067Y-0102898D01*
X-017735Y-0103954D01*
Y-0105046D01*
X-0177067Y-0106102D01*
X-0176521Y-0107048D01*
X-0175748Y-010782D01*
X-0174802Y-0108367D01*
X-0173746Y-010865D01*
X-0172654D01*
X-0171598Y-0108367D01*
X-0170652Y-010782D01*
X-0169879Y-0107048D01*
X-0169333Y-0106102D01*
X-016905Y-0105046D01*
Y-0103954D01*
X-0169333Y-0102898D01*
X-0169879Y-0101952D01*
X-0170652Y-010118D01*
X-0171598Y-0100633D01*
X-0172654Y-010035D01*
D02*
G37*
G36*
X-0182654D02*
X-0183746D01*
X-0184802Y-0100633D01*
X-0185748Y-010118D01*
X-0186521Y-0101952D01*
X-0187067Y-0102898D01*
X-018735Y-0103954D01*
Y-0105046D01*
X-0187067Y-0106102D01*
X-0186521Y-0107048D01*
X-0185748Y-010782D01*
X-0184802Y-0108367D01*
X-0183746Y-010865D01*
X-0182654D01*
X-0181598Y-0108367D01*
X-0180652Y-010782D01*
X-0179879Y-0107048D01*
X-0179333Y-0106102D01*
X-017905Y-0105046D01*
Y-0103954D01*
X-0179333Y-0102898D01*
X-0179879Y-0101952D01*
X-0180652Y-010118D01*
X-0181598Y-0100633D01*
X-0182654Y-010035D01*
D02*
G37*
G36*
X-0192654D02*
X-0193746D01*
X-0194802Y-0100633D01*
X-0195748Y-010118D01*
X-019652Y-0101952D01*
X-0197067Y-0102898D01*
X-019735Y-0103954D01*
Y-0105046D01*
X-0197067Y-0106102D01*
X-019652Y-0107048D01*
X-0195748Y-010782D01*
X-0194802Y-0108367D01*
X-0193746Y-010865D01*
X-0192654D01*
X-0191598Y-0108367D01*
X-0190652Y-010782D01*
X-018988Y-0107048D01*
X-0189333Y-0106102D01*
X-018905Y-0105046D01*
Y-0103954D01*
X-0189333Y-0102898D01*
X-018988Y-0101952D01*
X-0190652Y-010118D01*
X-0191598Y-0100633D01*
X-0192654Y-010035D01*
D02*
G37*
G36*
X-0202654D02*
X-0203746D01*
X-0204802Y-0100633D01*
X-0205748Y-010118D01*
X-0206521Y-0101952D01*
X-0207067Y-0102898D01*
X-020735Y-0103954D01*
Y-0105046D01*
X-0207067Y-0106102D01*
X-0206521Y-0107048D01*
X-0205748Y-010782D01*
X-0204802Y-0108367D01*
X-0203746Y-010865D01*
X-0202654D01*
X-0201598Y-0108367D01*
X-0200652Y-010782D01*
X-019988Y-0107048D01*
X-0199333Y-0106102D01*
X-019905Y-0105046D01*
Y-0103954D01*
X-0199333Y-0102898D01*
X-019988Y-0101952D01*
X-0200652Y-010118D01*
X-0201598Y-0100633D01*
X-0202654Y-010035D01*
D02*
G37*
G36*
X0000719Y-0094101D02*
X-0000719D01*
X-0002129Y-0094381D01*
X-0003458Y-0094932D01*
X-0004653Y-009573D01*
X-000567Y-0096747D01*
X-0006469Y-0097943D01*
X-0007019Y-0099271D01*
X-0007299Y-0100681D01*
Y-0102119D01*
X-0007019Y-0103529D01*
X-0006469Y-0104858D01*
X-000567Y-0106053D01*
X-0004653Y-010707D01*
X-0003458Y-0107869D01*
X-0002129Y-0108419D01*
X-0000719Y-0108699D01*
X0000719D01*
X0002129Y-0108419D01*
X0003458Y-0107869D01*
X0004653Y-010707D01*
X000567Y-0106053D01*
X0006469Y-0104858D01*
X0007019Y-0103529D01*
X0007299Y-0102119D01*
Y-0100681D01*
X0007019Y-0099271D01*
X0006469Y-0097943D01*
X000567Y-0096747D01*
X0004653Y-009573D01*
X0003458Y-0094932D01*
X0002129Y-0094381D01*
X0000719Y-0094101D01*
D02*
G37*
%LPD*%
G36*
X-01595Y-0032D02*
X-01445D01*
X-01436Y-00311D01*
X-01358D01*
X-01352Y-00317D01*
Y-00353D01*
X-01358Y-00359D01*
X-01436D01*
X-01445Y-0035D01*
X-01619D01*
X-0164Y-00329D01*
X-01745D01*
X-01751Y-00323D01*
Y-00248D01*
X-01745Y-00242D01*
X-01673D01*
X-01595Y-0032D01*
D02*
G37*
G36*
X-01106Y-00203D02*
X-01007D01*
X-00992Y-00218D01*
X-00992Y-00242D01*
X-00998Y-00248D01*
X-0102981D01*
X-01055Y-0027319D01*
Y-00308D01*
X-01058Y-00311D01*
X-01106D01*
X-01112Y-00317D01*
X-01247D01*
X-01253Y-00317D01*
X-01271Y-00335D01*
Y-00446D01*
X-01277Y-00452D01*
X-01382Y-00452D01*
X-013895Y-004445D01*
X-013895Y-004235D01*
X-01385Y-00419D01*
X-01334D01*
X-01331Y-00416D01*
Y-0029D01*
X-01352Y-00269D01*
X-01436D01*
X-01442Y-00263D01*
Y-00227D01*
X-01436Y-00221D01*
X-01256D01*
X-01208Y-00173D01*
X-01136D01*
X-01106Y-00203D01*
D02*
G37*
G36*
X-0177782Y-0042437D02*
X-0177782Y-0042437D01*
X-0177319Y-0042746D01*
X-0176772Y-0042855D01*
X-0176176D01*
Y-0047721D01*
X-0176022Y-0048495D01*
X-0175583Y-0049151D01*
X-0174927Y-004959D01*
X-0174153Y-0049744D01*
X-0172627D01*
Y-00512D01*
X-0172627Y-00512D01*
X-0172519Y-0051746D01*
X-0172209Y-0052209D01*
X-0168155Y-0056264D01*
X-0168347Y-0056726D01*
X-0173365D01*
X-0182976Y-0047115D01*
X-0183389Y-0046838D01*
X-0183877Y-0046741D01*
X-0187805D01*
X-0188122Y-0046355D01*
X-0188119Y-0046343D01*
Y-0045752D01*
X-0187918Y-0045506D01*
X-0186779D01*
X-0186779Y-0045506D01*
X-0186232Y-0045397D01*
X-0185769Y-0045088D01*
X-0185558Y-0044877D01*
X-0184992Y-0045018D01*
X-018478Y-0045336D01*
X-0184319Y-0045643D01*
X-0183775Y-0045752D01*
X-0180625D01*
X-0180081Y-0045643D01*
X-017962Y-0045336D01*
X-0179312Y-0044875D01*
X-0179204Y-0044331D01*
Y-0041969D01*
X-0178748Y-0041711D01*
X-0178518Y-0041701D01*
X-0177782Y-0042437D01*
D02*
G37*
G36*
X-0146106Y-0070433D02*
Y-0082244D01*
X-0159294D01*
Y-0069055D01*
X-0147484D01*
X-0146106Y-0070433D01*
D02*
G37*
D15*
X-012705Y-0065D02*
D03*
X-013335D02*
D03*
X-018485Y-00775D02*
D03*
X-017855D02*
D03*
Y-00895D02*
D03*
X-018485D02*
D03*
X-0184653Y-00835D02*
D03*
X-0178747D02*
D03*
X-011935Y-00905D02*
D03*
X-011305D02*
D03*
X-011355Y-0057D02*
D03*
X-011985D02*
D03*
X-01272Y-00785D02*
D03*
X-0133499D02*
D03*
X-012705Y-00715D02*
D03*
X-013335D02*
D03*
X-018515Y-00248D02*
D03*
X-017885D02*
D03*
X-0184953Y-00185D02*
D03*
X-0179047D02*
D03*
X-017885Y-00125D02*
D03*
X-018515D02*
D03*
D16*
X-01361Y-0043447D02*
D03*
Y-0049353D02*
D03*
X-01077Y-0022953D02*
D03*
Y-0017047D02*
D03*
X-01508Y-0033547D02*
D03*
Y-0039453D02*
D03*
X-01568Y-0033547D02*
D03*
Y-0039453D02*
D03*
X-01822Y-004315D02*
D03*
Y-003685D02*
D03*
Y-005985D02*
D03*
Y-006615D02*
D03*
X-01702Y-0067094D02*
D03*
Y-0073D02*
D03*
X-01076Y-00293D02*
D03*
Y-0035206D02*
D03*
X-01607Y-0055953D02*
D03*
Y-0050047D02*
D03*
X-01547Y-0055953D02*
D03*
Y-0050047D02*
D03*
X-01292Y-004965D02*
D03*
Y-004335D02*
D03*
X-01013Y-0023D02*
D03*
Y-0017095D02*
D03*
D17*
X-01712Y-0044374D02*
D03*
Y-0028626D02*
D03*
D18*
X-0146794Y-0066299D02*
D03*
X-0148763D02*
D03*
X-0150732D02*
D03*
X-01527D02*
D03*
X-0154668D02*
D03*
X-0156637D02*
D03*
X-0158606D02*
D03*
Y-0085D02*
D03*
X-0156637D02*
D03*
X-0154668D02*
D03*
X-01527D02*
D03*
X-0150732D02*
D03*
X-0148763D02*
D03*
X-0146794D02*
D03*
D19*
X-016205Y-0069744D02*
D03*
Y-0071713D02*
D03*
Y-0073681D02*
D03*
Y-007565D02*
D03*
Y-0077618D02*
D03*
Y-0079587D02*
D03*
Y-0081555D02*
D03*
X-014335D02*
D03*
Y-0079587D02*
D03*
Y-0077618D02*
D03*
Y-007565D02*
D03*
Y-0073681D02*
D03*
Y-0071713D02*
D03*
Y-0069744D02*
D03*
D20*
X-01527Y-007565D02*
D03*
D21*
X-01202Y-00505D02*
D03*
Y-00425D02*
D03*
D22*
X-0112326Y-006726D02*
D03*
X-01202Y-006352D02*
D03*
Y-0071D02*
D03*
X-01122Y-00805D02*
D03*
X-0120074Y-007676D02*
D03*
Y-008424D02*
D03*
D23*
X-0117259Y-0024445D02*
D03*
D24*
X-01397Y-00335D02*
D03*
Y-0024445D02*
D03*
Y-001539D02*
D03*
D25*
X-00497Y-00455D02*
D03*
D26*
X-0019385Y-0086839D02*
D03*
X-0024385D02*
D03*
X-0029385D02*
D03*
X-0034385D02*
D03*
X-0039385D02*
D03*
X-0044385D02*
D03*
X-0049385D02*
D03*
X-0054385D02*
D03*
X-0059385D02*
D03*
X-0064385D02*
D03*
X-0069385D02*
D03*
X-0074385D02*
D03*
X-0079385D02*
D03*
X-0084385D02*
D03*
Y-0015972D02*
D03*
X-0079385D02*
D03*
X-0074385D02*
D03*
X-0069385D02*
D03*
X-0064385D02*
D03*
X-0059385D02*
D03*
X-0054385D02*
D03*
X-0049385D02*
D03*
X-0044385D02*
D03*
X-0039385D02*
D03*
X-0034385D02*
D03*
X-0029385D02*
D03*
X-0024385D02*
D03*
D27*
X-0019385D02*
D03*
D28*
X-0090212Y-0048906D02*
D03*
Y-0053905D02*
D03*
Y-0058906D02*
D03*
Y-0063906D02*
D03*
Y-0068906D02*
D03*
Y-0073905D02*
D03*
Y-0028905D02*
D03*
Y-0033906D02*
D03*
Y-0038906D02*
D03*
Y-0043905D02*
D03*
D29*
X-0191507Y-0061598D02*
D03*
Y-0058449D02*
D03*
Y-0039551D02*
D03*
Y-0036402D02*
D03*
D30*
Y-004211D02*
D03*
Y-005589D02*
D03*
Y-0044079D02*
D03*
Y-0053921D02*
D03*
Y-0046047D02*
D03*
Y-0051953D02*
D03*
Y-0048016D02*
D03*
Y-0049984D02*
D03*
D31*
X-0195031Y-0085732D02*
D03*
X-0211369D02*
D03*
X-0195031Y-0077268D02*
D03*
X-0211369D02*
D03*
X-0210869Y-0012768D02*
D03*
X-0194531D02*
D03*
X-0210869Y-0021232D02*
D03*
X-0194531D02*
D03*
D53*
X-013335Y-0065394D02*
Y-0065D01*
X-0130243Y-00685D02*
X-01302D01*
X-013335Y-0065394D02*
X-0130243Y-00685D01*
X-00344Y-0086824D02*
Y-00806D01*
Y-0086824D02*
X-0034385Y-0086839D01*
X-0159178Y-0063115D02*
X-0157633D01*
X-0156637Y-006411D01*
X-0159255Y-0063038D02*
X-0159178Y-0063115D01*
X-0166447Y-0055953D02*
X-01607D01*
X-0156637Y-0066299D02*
Y-006411D01*
X-01607Y-0055953D02*
X-0160306D01*
X-01712Y-00512D02*
X-0166447Y-0055953D01*
X-01712Y-00512D02*
Y-0044374D01*
X-0160306Y-0055953D02*
X-01577Y-0053347D01*
Y-00533D01*
X-0184956Y-0093242D02*
X-0184903Y-0093189D01*
Y-0089553D01*
X-01458Y-00971D02*
X-0119257D01*
X-011305Y-0090894D01*
X-00416Y-008D02*
X-003943Y-008217D01*
Y-0086794D02*
X-0039385Y-0086839D01*
X-003943Y-0086794D02*
Y-008217D01*
X-01047Y-008D02*
X-00416D01*
X-01895Y-00197D02*
X-0189311D01*
X-0188111Y-00185D01*
X-0184953D01*
X-0185051Y-0018402D02*
Y-0012598D01*
X-0194531Y-0012768D02*
X-0185417D01*
X-018515Y-00125D01*
X-0185051Y-0018402D02*
X-0184953Y-00185D01*
X-018515Y-00125D02*
X-0185051Y-0012598D01*
X-0210869Y-0012768D02*
X-0194531D01*
X-01889Y-00248D02*
X-0183927D01*
X-0193934Y-0021829D02*
X-0191871D01*
X-01889Y-00248D01*
X-0194531Y-0021232D02*
X-0193934Y-0021829D01*
X-0210869Y-0021232D02*
X-0194531D01*
X-0191666Y-0036402D02*
X-0191507D01*
X-0192432Y-0035635D02*
X-0191666Y-0036402D01*
X-0192432Y-0035635D02*
Y-0033311D01*
X-0193751Y-0031992D02*
X-0192432Y-0033311D01*
X-0210208Y-0031992D02*
X-0193751D01*
Y-0066008D02*
X-0192956D01*
X-0191507Y-0064559D01*
Y-0061598D01*
X-0210208Y-0066008D02*
X-0193751D01*
X-01532Y-01045D02*
X-01458Y-00971D01*
X-011305Y-0090894D02*
Y-00905D01*
X-0123369Y-008424D02*
X-0120074D01*
X-0123391Y-0084218D02*
X-0123369Y-008424D01*
X-00797Y-00921D02*
Y-0087154D01*
X-0079385Y-0086839D01*
X-0074385Y-00921D02*
Y-0086839D01*
X-00938Y-00941D02*
X-0069854D01*
X-0069385Y-0093631D02*
Y-0086839D01*
X-0069854Y-00941D02*
X-0069385Y-0093631D01*
X-009795Y-009825D02*
X-00938Y-00941D01*
X-006597Y-00959D02*
X-0064385Y-0094315D01*
X-009885Y-0103716D02*
X-0091034Y-00959D01*
X-00849Y-00977D02*
X-00629D01*
X-0091034Y-00959D02*
X-006597D01*
X-0090174Y-0102974D02*
X-00849Y-00977D01*
X-00629D02*
X-0059385Y-0094185D01*
X-00785Y-00998D02*
X-00605D01*
X-00832Y-01045D02*
X-00785Y-00998D01*
X-00605D02*
X-0054707Y-0094007D01*
X-01017Y-0078D02*
X-00654D01*
X-00932Y-01045D02*
X-0091712D01*
X-0090186Y-0102974D01*
X-0090174D01*
X-0120625Y-0050075D02*
X-01202Y-00505D01*
X-0128775Y-0050075D02*
X-0120625D01*
X-01292Y-004965D02*
X-0128775Y-0050075D01*
X-0029385Y-0041985D02*
Y-0015972D01*
X-00654Y-0078D02*
X-0029385Y-0041985D01*
X-0025058Y-0021969D02*
Y-0021698D01*
X-00245Y-002114D01*
Y-0016087D01*
X-0024385Y-0015972D01*
X-01124Y-00632D02*
X-0112326Y-0063274D01*
Y-006726D02*
Y-0063274D01*
X-00963Y-0049D02*
X-0090306D01*
X-00977Y-00476D02*
X-00963Y-0049D01*
X-00972Y-0054D02*
X-0090306D01*
X-00972Y-0059D02*
X-0090306D01*
X-00972Y-0064D02*
X-0090306D01*
Y-0054D02*
X-0090212Y-0053905D01*
X-00972Y-0044D02*
X-0090306D01*
X-0090212Y-0043905D01*
X-0090306Y-0049D02*
X-0090212Y-0048906D01*
X-01673Y-00638D02*
X-01649Y-00662D01*
X-0158796D01*
X-0158697Y-0066299D02*
X-0158606D01*
X-0158796Y-00662D02*
X-0158697Y-0066299D01*
X-0160777Y-0068223D02*
X-0160127Y-0067572D01*
X-0160777Y-0069554D02*
Y-0068223D01*
X-0160968Y-0069744D02*
X-0160777Y-0069554D01*
X-016205Y-0069744D02*
X-0160968D01*
X-0160127Y-0067572D02*
X-0158796D01*
X-0158606Y-0067382D01*
Y-0066299D01*
X-0164547Y-0069554D02*
X-0162241D01*
X-016205Y-0069744D01*
X-0167006Y-0067094D02*
X-0164547Y-0069554D01*
X-01702Y-0067094D02*
X-0167006D01*
X-02012Y-0044D02*
X-0197502Y-0040302D01*
X-02012Y-00542D02*
Y-0044D01*
Y-00542D02*
X-0197702Y-0057698D01*
X-0194428Y-005788D02*
X-0192076D01*
X-019461Y-0057698D02*
X-0194428Y-005788D01*
X-0197702Y-0057698D02*
X-019461D01*
Y-0040302D02*
X-0194428Y-004012D01*
X-0197502Y-0040302D02*
X-019461D01*
X-0194428Y-004012D02*
X-0192076D01*
X-0174146Y-0041428D02*
X-01712Y-0044374D01*
X-0176772Y-0041428D02*
X-0174146D01*
X-01782Y-004D02*
X-0176772Y-0041428D01*
X-0184343Y-004D02*
X-01782D01*
X-0184792Y-0039551D02*
X-0184343Y-004D01*
X-0191507Y-0039551D02*
X-0184792D01*
X-0192076Y-004012D02*
X-0191507Y-0039551D01*
X-0192076Y-005788D02*
X-0191507Y-0058449D01*
X-0183375Y-0058676D02*
X-01822Y-005985D01*
X-0185024Y-0058676D02*
X-0183375D01*
X-018781Y-005589D02*
X-0185024Y-0058676D01*
X-0191507Y-005589D02*
X-018781D01*
X-018235Y-0043D02*
X-01822Y-004315D01*
X-01857Y-0043D02*
X-018235D01*
X-0186779Y-0044079D02*
X-01857Y-0043D01*
X-0191507Y-0044079D02*
X-0186779D01*
X-01122Y-00675D02*
X-01017Y-0078D01*
X-01167Y-0068D02*
X-01047Y-008D01*
X-0090117Y-0074D02*
X-008534D01*
X-0084939Y-0073599D01*
X-0084831D01*
X-0090212Y-0073905D02*
X-0090117Y-0074D01*
X-01062Y-00675D02*
X-0099795Y-0073905D01*
X-0090212D01*
X-01122Y-00675D02*
Y-0067134D01*
X-0186491Y-0085732D02*
X-0184653Y-0083894D01*
Y-00835D01*
X-0184751Y-0089402D02*
Y-0083598D01*
X-0184903Y-0089553D02*
X-0184751Y-0089402D01*
X-0024385Y-0101827D02*
X-00232Y-0103012D01*
X-0024385Y-0101827D02*
Y-0086839D01*
X-00232Y-01045D02*
Y-0103012D01*
X-00132Y-01045D02*
Y-0099D01*
X-0019385Y-0092815D02*
X-00132Y-0099D01*
X-0019385Y-0092815D02*
Y-0086839D01*
X-00332Y-01045D02*
X-00322Y-01035D01*
Y-0099D01*
X-0029385Y-0096185D01*
Y-0086839D01*
X-00532Y-01045D02*
X-00457Y-0097D01*
X-00432D01*
X-0039385Y-0093185D01*
Y-0086839D01*
X-0029385Y-0015972D02*
Y-0010185D01*
X-00227Y-00035D01*
Y0002D01*
X-0034195Y-0011304D02*
X-00327Y-0009809D01*
Y0002D01*
X-0034195Y-0015782D02*
Y-0011304D01*
X-0034385Y-0015972D02*
X-0034195Y-0015782D01*
X-0060396Y-0014962D02*
Y-0011304D01*
X-00689Y-00028D02*
X-0060396Y-0011304D01*
Y-0014962D02*
X-0059385Y-0015972D01*
X-00779Y-00028D02*
X-00689D01*
X-0062812Y-0005843D02*
X-0058858D01*
X-0067654Y-0001D02*
X-0062812Y-0005843D01*
X-0069549Y-0001D02*
X-0067654D01*
X-00727Y0002D02*
X-0072549D01*
X-0069549Y-0001D01*
X-0054385Y-0015972D02*
Y-0010315D01*
X-0058858Y-0005843D02*
X-0054385Y-0010315D01*
X-00597Y-00035D02*
X-00542D01*
X-0049385Y-0015972D02*
Y-0008315D01*
X-00542Y-00035D02*
X-0049385Y-0008315D01*
X-00627Y0002D02*
X-0061674Y0000974D01*
Y-0001526D02*
Y0000974D01*
Y-0001526D02*
X-00597Y-00035D01*
X-01282Y-00125D02*
X-00902D01*
X-00877Y-0015D02*
X-0085357D01*
X-00902Y-00125D02*
X-00877Y-0015D01*
X-0085357D02*
X-0084385Y-0015972D01*
X-0121565Y-0010635D02*
X-0082125D01*
X-0101865Y-0008835D02*
X-007491D01*
X-01127Y0002D02*
X-0101865Y-0008835D01*
X-0093665Y-0007035D02*
X-0071665D01*
X-01027Y0002D02*
X-0093665Y-0007035D01*
X-00927Y0002D02*
X-0085465Y-0005235D01*
X-01427Y0002D02*
X-01282Y-00125D01*
X-0131174Y-0001026D02*
X-0121565Y-0010635D01*
X-0085465Y-0005235D02*
X-0069965D01*
X-01327Y0000512D02*
X-0131174Y-0001014D01*
Y-0001026D02*
Y-0001014D01*
X-01327Y0000512D02*
Y0002D01*
X-007491Y-0008835D02*
X-0073223Y-0010523D01*
X-0069965Y-0005235D02*
X-0065396Y-0009804D01*
X-0071665Y-0007035D02*
X-0069385Y-0009315D01*
X-00827Y0002D02*
X-00779Y-00028D01*
X-0069385Y-0015972D02*
Y-0009315D01*
X-0065396Y-0014962D02*
Y-0009804D01*
X-0082125Y-0010635D02*
X-0080897Y-0011864D01*
Y-0014461D02*
Y-0011864D01*
Y-0014461D02*
X-0079385Y-0015972D01*
X-0073223Y-001481D02*
Y-0010523D01*
X-0074385Y-0015972D02*
X-0073223Y-001481D01*
X-0065396Y-0014962D02*
X-0064385Y-0015972D01*
X-0044385D02*
Y-0006315D01*
X-00527Y0002D02*
X-0044385Y-0006315D01*
X-0039385Y-0015972D02*
X-00392Y-0015787D01*
Y-00055D01*
X-004235Y-000235D02*
X-00392Y-00055D01*
X-004235Y-000235D02*
Y000165D01*
X-00427Y0002D02*
X-004235Y000165D01*
X-0024385Y-0009685D02*
X-00127Y0002D01*
X-0024385Y-0015972D02*
Y-0009685D01*
X-0112326Y-006726D02*
X-01122Y-0067134D01*
X-00972Y-0034D02*
X-0090306D01*
X-0090212Y-0033906D01*
X-00972Y-0039D02*
X-0090306D01*
X-0090212Y-0038906D01*
X-0090306Y-0059D02*
X-0090212Y-0058906D01*
X-0090306Y-0064D02*
X-0090212Y-0063906D01*
X-00972Y-0069D02*
X-0090306D01*
X-0090212Y-0068906D01*
X-011355Y-0057D02*
X-01097D01*
X-01062Y-00605D01*
Y-00675D02*
Y-00605D01*
X-010695Y-009825D02*
X-009795D01*
X-01132Y-01045D02*
X-010695Y-009825D01*
X-0109389Y-0086839D02*
X-0084385D01*
X-011305Y-00905D02*
X-0109389Y-0086839D01*
X-01032Y-01045D02*
X-0102416Y-0103716D01*
X-009885D01*
X-0064385Y-0094315D02*
Y-0089339D01*
X-00537Y-0097D02*
X-0049449D01*
X-0060148Y-0103448D02*
X-00537Y-0097D01*
X-00632Y-01045D02*
X-0062148Y-0103448D01*
X-0060148D01*
X-0054707Y-0094007D02*
Y-0089661D01*
X-0054385Y-0089339D01*
X-0059385Y-0094185D02*
Y-0089339D01*
X-0049449Y-0097D02*
X-0045897Y-0093447D01*
Y-009085D01*
X-0044385Y-0089339D01*
X-00432Y-01045D02*
X-0034425Y-0095725D01*
Y-0089299D01*
X-0137308Y-00755D02*
X-01372D01*
X-0137458Y-007565D02*
X-0137308Y-00755D01*
X-014335Y-007565D02*
X-0137458D01*
X-014335Y-0077618D02*
X-0138082D01*
X-01372Y-00785D01*
X-014335Y-0073681D02*
X-0139881D01*
X-01377Y-00715D01*
X-01302Y-00775D02*
Y-00755D01*
X-0129569Y-0074869D01*
X-0124462D01*
X-01307Y-0078D02*
X-01302Y-00775D01*
X-0132999Y-0078D02*
X-01307D01*
X-0133499Y-00785D02*
X-0132999Y-0078D01*
X-0119387Y-0090537D02*
X-011935Y-00905D01*
X-0123313Y-0090537D02*
X-0119387D01*
X-011305Y-00905D02*
Y-0081281D01*
X-0112269Y-00805D01*
X-01122D01*
X-0125482Y-0069932D02*
X-012355Y-0068D01*
X-01167D01*
X-0125876Y-0069932D02*
X-0125482D01*
X-012705Y-0071106D02*
X-0125876Y-0069932D01*
X-012705Y-00715D02*
Y-0071106D01*
X-0124462Y-0074869D02*
X-0120594Y-0071D01*
X-01202D01*
X-012022Y-00635D02*
X-01202Y-006352D01*
X-01232Y-00635D02*
X-012022D01*
X-01247Y-0065D02*
X-01232Y-00635D01*
X-012705Y-0065D02*
X-01247D01*
X-012246Y-007676D02*
X-0120074D01*
X-01242Y-00785D02*
X-012246Y-007676D01*
X-01272Y-00785D02*
X-01242D01*
X-01372D02*
X-0133499D01*
X-01377Y-00715D02*
X-013335D01*
X-0137523Y-0065D02*
X-013335D01*
X-0142267Y-0069744D02*
X-0137523Y-0065D01*
X-014335Y-0069744D02*
X-0142267D01*
X-0184751Y-0083598D02*
X-0184653Y-00835D01*
X-0195031Y-0085732D02*
X-0186491D01*
X-0211369D02*
X-0195031D01*
X-0185082Y-0077268D02*
X-018485Y-00775D01*
X-0195031Y-0077268D02*
X-0185082D01*
X-0211369D02*
X-0195031D01*
D54*
X-0198293Y-0048309D02*
X-0198Y-0048016D01*
X-0183877D01*
X-0198293Y-0051677D02*
Y-0048309D01*
Y-0051677D02*
X-0198Y-005197D01*
X-0191525D01*
X-01527Y-0066299D02*
Y-0063636D01*
X-0160614Y-00593D02*
X-0156993D01*
X-0152657Y-0063636D01*
X-01527Y-0066299D02*
X-0152657Y-0066256D01*
Y-0063636D01*
X-0162946Y-0061632D02*
X-0160614Y-00593D01*
X-0164046Y-0061632D02*
X-0162946D01*
X-0167679Y-0058D02*
X-0164046Y-0061632D01*
X-0173893Y-0058D02*
X-0167679D01*
X-0183877Y-0048016D02*
X-0173893Y-0058D01*
X-0157614Y-00608D02*
X-0154668Y-0063746D01*
X-0159993Y-00608D02*
X-0157614D01*
X-0162325Y-0063132D02*
X-0159993Y-00608D01*
X-0164668Y-0063132D02*
X-0162325D01*
X-01683Y-00595D02*
X-0164668Y-0063132D01*
X-0174514Y-00595D02*
X-01683D01*
X-018403Y-0049984D02*
X-0174514Y-00595D01*
X-0191507Y-0049984D02*
X-018403D01*
X-0154668Y-0066299D02*
Y-0063746D01*
X-01961Y-00461D02*
X-0196074Y-0046074D01*
X-0191534D01*
X-0191507Y-0046047D01*
X-0196092Y-0049992D02*
X-0191515D01*
D55*
X-01547Y-00584D02*
Y-0055953D01*
X-0171238Y-0079738D02*
X-01712Y-00797D01*
X-0171238Y-0081794D02*
Y-0079738D01*
X-017855Y-0089106D02*
X-0171238Y-0081794D01*
X-017855Y-00895D02*
Y-0089106D01*
X-01709Y-00176D02*
X-01682D01*
X-017885Y-00125D02*
X-0176D01*
X-01709Y-00176D01*
X-01658Y-00053D02*
X-0160813D01*
X-0141668Y-0024445D01*
X-01397D01*
X-0177082Y-0090969D02*
X-017545Y-00926D01*
X-0125376D01*
X-0123313Y-0090537D01*
X-0177476Y-0090969D02*
X-0177082D01*
X-017855Y-0089894D02*
X-0177476Y-0090969D01*
X-017855Y-0089894D02*
Y-00895D01*
X-01013Y-0023D02*
X-00941D01*
X-0154306Y-0055953D02*
X-0141801Y-0043447D01*
X-01361D01*
D56*
X-01508Y-0033547D02*
Y-00284D01*
X-01715Y-00077D02*
X-01508Y-00284D01*
X-0183Y-00077D02*
X-01715D01*
X-0139724Y-0033524D02*
X-01397Y-00335D01*
X-0150776Y-0033524D02*
X-0139724D01*
X-01508Y-0033547D02*
X-0150776Y-0033524D01*
X-01568Y-0033547D02*
X-01508D01*
X-01927Y0002D02*
X-0183Y-00077D01*
D57*
X-02032Y-01045D02*
D03*
X-01932D02*
D03*
X-01832D02*
D03*
X-01732D02*
D03*
X-01632D02*
D03*
X-01432D02*
D03*
X-01332D02*
D03*
X-00932D02*
D03*
X-00632D02*
D03*
X-00432D02*
D03*
X-00232D02*
D03*
X-00332D02*
D03*
X-00532D02*
D03*
X-00732D02*
D03*
X-00832D02*
D03*
X-01032D02*
D03*
X-01132D02*
D03*
X-01232D02*
D03*
X-01532D02*
D03*
X-02027Y0002D02*
D03*
X-01927D02*
D03*
X-01827D02*
D03*
X-01727D02*
D03*
X-01627D02*
D03*
X-01427D02*
D03*
X-01327D02*
D03*
X-00927D02*
D03*
X-00627D02*
D03*
X-00427D02*
D03*
X-00227D02*
D03*
X-00327D02*
D03*
X-00527D02*
D03*
X-00727D02*
D03*
X-00827D02*
D03*
X-01027D02*
D03*
X-01127D02*
D03*
X-01227D02*
D03*
X-01527D02*
D03*
D58*
X-00132Y-01045D02*
D03*
X-00127Y0002D02*
D03*
D59*
X-0210208Y-0066008D02*
D03*
Y-0031992D02*
D03*
D60*
X-0193751Y-0066008D02*
D03*
Y-0031992D02*
D03*
D61*
X-019572Y-0037622D02*
D03*
Y-0060378D02*
D03*
D62*
X-01302Y-00685D02*
D03*
X-01547Y-00584D02*
D03*
X-0159255Y-0063038D02*
D03*
X-01577Y-00533D02*
D03*
X-01712Y-00797D02*
D03*
X-0184956Y-0093242D02*
D03*
X-01682Y-00176D02*
D03*
X-01658Y-00053D02*
D03*
X-00344Y-00806D02*
D03*
X-0123391Y-0084218D02*
D03*
X-00797Y-00921D02*
D03*
X-0074385D02*
D03*
X-01124Y-00632D02*
D03*
X-00977Y-00476D02*
D03*
X-00972Y-0054D02*
D03*
Y-0059D02*
D03*
Y-0064D02*
D03*
Y-0044D02*
D03*
X-01673Y-00638D02*
D03*
X-01961Y-00461D02*
D03*
Y-005D02*
D03*
X-0084831Y-0073599D02*
D03*
X-00972Y-0034D02*
D03*
Y-0039D02*
D03*
Y-0069D02*
D03*
X-00432Y-01045D02*
D03*
X-01372Y-00755D02*
D03*
X-0123313Y-0090537D02*
D03*
D63*
X-0051472Y-0050224D02*
D03*
X-0047928D02*
D03*
Y-0040776D02*
D03*
X-0051472D02*
D03*
X-0054424Y-0043728D02*
D03*
Y-0047272D02*
D03*
X-0044976Y-0043728D02*
D03*
Y-0047272D02*
D03*
X-00497D02*
D03*
X-0051472Y-00455D02*
D03*
X-00497Y-0043728D02*
D03*
X-0047928Y-00455D02*
D03*
X-01898Y-00971D02*
D03*
X-01643Y-00581D02*
D03*
X-00356Y-00725D02*
D03*
X-00362Y-00665D02*
D03*
X-01694Y-00632D02*
D03*
X-01712Y-00548D02*
D03*
X-01613Y-00644D02*
D03*
X-01895Y-00197D02*
D03*
D64*
X-0217201Y-01014D02*
D03*
X-02172Y0D02*
D03*
X0Y-01014D02*
D03*
Y0D02*
D03*
D65*
X-0025058Y-0021969D02*
D03*
X-00941Y-0023D02*
D03*
M02*
