G04*
G04 #@! TF.GenerationSoftware,Altium Limited,Altium Designer,25.4.2 (15)*
G04*
G04 Layer_Color=2752767*
%FSTAX25Y25*%
%MOIN*%
G70*
G04*
G04 #@! TF.SameCoordinates,9F79833E-919C-48C8-8BE8-C58A611C57C3*
G04*
G04*
G04 #@! TF.FilePolarity,Positive*
G04*
G01*
G75*
%ADD54C,0.00500*%
%ADD67C,0.00667*%
D54*
X-02032Y-01065D02*
X-02022Y-01055D01*
X-02012D01*
X-02022Y-01045D01*
X-02012Y-01035D01*
X-02022D01*
X-02032Y-01025D01*
X-02042Y-01035D01*
X-02052D01*
X-02042Y-01045D01*
X-02052Y-01055D01*
X-02042D01*
X-02032Y-01065D01*
X-01932D02*
X-01922Y-01055D01*
X-01912D01*
X-01922Y-01045D01*
X-01912Y-01035D01*
X-01922D01*
X-01932Y-01025D01*
X-01942Y-01035D01*
X-01952D01*
X-01942Y-01045D01*
X-01952Y-01055D01*
X-01942D01*
X-01932Y-01065D01*
X-01832D02*
X-01822Y-01055D01*
X-01812D01*
X-01822Y-01045D01*
X-01812Y-01035D01*
X-01822D01*
X-01832Y-01025D01*
X-01842Y-01035D01*
X-01852D01*
X-01842Y-01045D01*
X-01852Y-01055D01*
X-01842D01*
X-01832Y-01065D01*
X-01732D02*
X-01722Y-01055D01*
X-01712D01*
X-01722Y-01045D01*
X-01712Y-01035D01*
X-01722D01*
X-01732Y-01025D01*
X-01742Y-01035D01*
X-01752D01*
X-01742Y-01045D01*
X-01752Y-01055D01*
X-01742D01*
X-01732Y-01065D01*
X-01632D02*
X-01622Y-01055D01*
X-01612D01*
X-01622Y-01045D01*
X-01612Y-01035D01*
X-01622D01*
X-01632Y-01025D01*
X-01642Y-01035D01*
X-01652D01*
X-01642Y-01045D01*
X-01652Y-01055D01*
X-01642D01*
X-01632Y-01065D01*
X-01432D02*
X-01422Y-01055D01*
X-01412D01*
X-01422Y-01045D01*
X-01412Y-01035D01*
X-01422D01*
X-01432Y-01025D01*
X-01442Y-01035D01*
X-01452D01*
X-01442Y-01045D01*
X-01452Y-01055D01*
X-01442D01*
X-01432Y-01065D01*
X-01332D02*
X-01322Y-01055D01*
X-01312D01*
X-01322Y-01045D01*
X-01312Y-01035D01*
X-01322D01*
X-01332Y-01025D01*
X-01342Y-01035D01*
X-01352D01*
X-01342Y-01045D01*
X-01352Y-01055D01*
X-01342D01*
X-01332Y-01065D01*
X-00932D02*
X-00922Y-01055D01*
X-00912D01*
X-00922Y-01045D01*
X-00912Y-01035D01*
X-00922D01*
X-00932Y-01025D01*
X-00942Y-01035D01*
X-00952D01*
X-00942Y-01045D01*
X-00952Y-01055D01*
X-00942D01*
X-00932Y-01065D01*
X-00632D02*
X-00622Y-01055D01*
X-00612D01*
X-00622Y-01045D01*
X-00612Y-01035D01*
X-00622D01*
X-00632Y-01025D01*
X-00642Y-01035D01*
X-00652D01*
X-00642Y-01045D01*
X-00652Y-01055D01*
X-00642D01*
X-00632Y-01065D01*
X-00432D02*
X-00422Y-01055D01*
X-00412D01*
X-00422Y-01045D01*
X-00412Y-01035D01*
X-00422D01*
X-00432Y-01025D01*
X-00442Y-01035D01*
X-00452D01*
X-00442Y-01045D01*
X-00452Y-01055D01*
X-00442D01*
X-00432Y-01065D01*
X-00232D02*
X-00222Y-01055D01*
X-00212D01*
X-00222Y-01045D01*
X-00212Y-01035D01*
X-00222D01*
X-00232Y-01025D01*
X-00242Y-01035D01*
X-00252D01*
X-00242Y-01045D01*
X-00252Y-01055D01*
X-00242D01*
X-00232Y-01065D01*
X-00132D02*
X-00122Y-01055D01*
X-00112D01*
X-00122Y-01045D01*
X-00112Y-01035D01*
X-00122D01*
X-00132Y-01025D01*
X-00142Y-01035D01*
X-00152D01*
X-00142Y-01045D01*
X-00152Y-01055D01*
X-00142D01*
X-00132Y-01065D01*
X-00332D02*
X-00322Y-01055D01*
X-00312D01*
X-00322Y-01045D01*
X-00312Y-01035D01*
X-00322D01*
X-00332Y-01025D01*
X-00342Y-01035D01*
X-00352D01*
X-00342Y-01045D01*
X-00352Y-01055D01*
X-00342D01*
X-00332Y-01065D01*
X-00532D02*
X-00522Y-01055D01*
X-00512D01*
X-00522Y-01045D01*
X-00512Y-01035D01*
X-00522D01*
X-00532Y-01025D01*
X-00542Y-01035D01*
X-00552D01*
X-00542Y-01045D01*
X-00552Y-01055D01*
X-00542D01*
X-00532Y-01065D01*
X-00732D02*
X-00722Y-01055D01*
X-00712D01*
X-00722Y-01045D01*
X-00712Y-01035D01*
X-00722D01*
X-00732Y-01025D01*
X-00742Y-01035D01*
X-00752D01*
X-00742Y-01045D01*
X-00752Y-01055D01*
X-00742D01*
X-00732Y-01065D01*
X-00832D02*
X-00822Y-01055D01*
X-00812D01*
X-00822Y-01045D01*
X-00812Y-01035D01*
X-00822D01*
X-00832Y-01025D01*
X-00842Y-01035D01*
X-00852D01*
X-00842Y-01045D01*
X-00852Y-01055D01*
X-00842D01*
X-00832Y-01065D01*
X-01032D02*
X-01022Y-01055D01*
X-01012D01*
X-01022Y-01045D01*
X-01012Y-01035D01*
X-01022D01*
X-01032Y-01025D01*
X-01042Y-01035D01*
X-01052D01*
X-01042Y-01045D01*
X-01052Y-01055D01*
X-01042D01*
X-01032Y-01065D01*
X-01132D02*
X-01122Y-01055D01*
X-01112D01*
X-01122Y-01045D01*
X-01112Y-01035D01*
X-01122D01*
X-01132Y-01025D01*
X-01142Y-01035D01*
X-01152D01*
X-01142Y-01045D01*
X-01152Y-01055D01*
X-01142D01*
X-01132Y-01065D01*
X-01232D02*
X-01222Y-01055D01*
X-01212D01*
X-01222Y-01045D01*
X-01212Y-01035D01*
X-01222D01*
X-01232Y-01025D01*
X-01242Y-01035D01*
X-01252D01*
X-01242Y-01045D01*
X-01252Y-01055D01*
X-01242D01*
X-01232Y-01065D01*
X-01532D02*
X-01522Y-01055D01*
X-01512D01*
X-01522Y-01045D01*
X-01512Y-01035D01*
X-01522D01*
X-01532Y-01025D01*
X-01542Y-01035D01*
X-01552D01*
X-01542Y-01045D01*
X-01552Y-01055D01*
X-01542D01*
X-01532Y-01065D01*
X-02027Y0D02*
X-02017Y0001D01*
X-02007D01*
X-02017Y0002D01*
X-02007Y0003D01*
X-02017D01*
X-02027Y0004D01*
X-02037Y0003D01*
X-02047D01*
X-02037Y0002D01*
X-02047Y0001D01*
X-02037D01*
X-02027Y0D01*
X-01927D02*
X-01917Y0001D01*
X-01907D01*
X-01917Y0002D01*
X-01907Y0003D01*
X-01917D01*
X-01927Y0004D01*
X-01937Y0003D01*
X-01947D01*
X-01937Y0002D01*
X-01947Y0001D01*
X-01937D01*
X-01927Y0D01*
X-01827D02*
X-01817Y0001D01*
X-01807D01*
X-01817Y0002D01*
X-01807Y0003D01*
X-01817D01*
X-01827Y0004D01*
X-01837Y0003D01*
X-01847D01*
X-01837Y0002D01*
X-01847Y0001D01*
X-01837D01*
X-01827Y0D01*
X-01727D02*
X-01717Y0001D01*
X-01707D01*
X-01717Y0002D01*
X-01707Y0003D01*
X-01717D01*
X-01727Y0004D01*
X-01737Y0003D01*
X-01747D01*
X-01737Y0002D01*
X-01747Y0001D01*
X-01737D01*
X-01727Y0D01*
X-01627D02*
X-01617Y0001D01*
X-01607D01*
X-01617Y0002D01*
X-01607Y0003D01*
X-01617D01*
X-01627Y0004D01*
X-01637Y0003D01*
X-01647D01*
X-01637Y0002D01*
X-01647Y0001D01*
X-01637D01*
X-01627Y0D01*
X-01427D02*
X-01417Y0001D01*
X-01407D01*
X-01417Y0002D01*
X-01407Y0003D01*
X-01417D01*
X-01427Y0004D01*
X-01437Y0003D01*
X-01447D01*
X-01437Y0002D01*
X-01447Y0001D01*
X-01437D01*
X-01427Y0D01*
X-01327D02*
X-01317Y0001D01*
X-01307D01*
X-01317Y0002D01*
X-01307Y0003D01*
X-01317D01*
X-01327Y0004D01*
X-01337Y0003D01*
X-01347D01*
X-01337Y0002D01*
X-01347Y0001D01*
X-01337D01*
X-01327Y0D01*
X-00927D02*
X-00917Y0001D01*
X-00907D01*
X-00917Y0002D01*
X-00907Y0003D01*
X-00917D01*
X-00927Y0004D01*
X-00937Y0003D01*
X-00947D01*
X-00937Y0002D01*
X-00947Y0001D01*
X-00937D01*
X-00927Y0D01*
X-00627D02*
X-00617Y0001D01*
X-00607D01*
X-00617Y0002D01*
X-00607Y0003D01*
X-00617D01*
X-00627Y0004D01*
X-00637Y0003D01*
X-00647D01*
X-00637Y0002D01*
X-00647Y0001D01*
X-00637D01*
X-00627Y0D01*
X-00427D02*
X-00417Y0001D01*
X-00407D01*
X-00417Y0002D01*
X-00407Y0003D01*
X-00417D01*
X-00427Y0004D01*
X-00437Y0003D01*
X-00447D01*
X-00437Y0002D01*
X-00447Y0001D01*
X-00437D01*
X-00427Y0D01*
X-00227D02*
X-00217Y0001D01*
X-00207D01*
X-00217Y0002D01*
X-00207Y0003D01*
X-00217D01*
X-00227Y0004D01*
X-00237Y0003D01*
X-00247D01*
X-00237Y0002D01*
X-00247Y0001D01*
X-00237D01*
X-00227Y0D01*
X-00127D02*
X-00117Y0001D01*
X-00107D01*
X-00117Y0002D01*
X-00107Y0003D01*
X-00117D01*
X-00127Y0004D01*
X-00137Y0003D01*
X-00147D01*
X-00137Y0002D01*
X-00147Y0001D01*
X-00137D01*
X-00127Y0D01*
X-00327D02*
X-00317Y0001D01*
X-00307D01*
X-00317Y0002D01*
X-00307Y0003D01*
X-00317D01*
X-00327Y0004D01*
X-00337Y0003D01*
X-00347D01*
X-00337Y0002D01*
X-00347Y0001D01*
X-00337D01*
X-00327Y0D01*
X-00527D02*
X-00517Y0001D01*
X-00507D01*
X-00517Y0002D01*
X-00507Y0003D01*
X-00517D01*
X-00527Y0004D01*
X-00537Y0003D01*
X-00547D01*
X-00537Y0002D01*
X-00547Y0001D01*
X-00537D01*
X-00527Y0D01*
X-00727D02*
X-00717Y0001D01*
X-00707D01*
X-00717Y0002D01*
X-00707Y0003D01*
X-00717D01*
X-00727Y0004D01*
X-00737Y0003D01*
X-00747D01*
X-00737Y0002D01*
X-00747Y0001D01*
X-00737D01*
X-00727Y0D01*
X-00827D02*
X-00817Y0001D01*
X-00807D01*
X-00817Y0002D01*
X-00807Y0003D01*
X-00817D01*
X-00827Y0004D01*
X-00837Y0003D01*
X-00847D01*
X-00837Y0002D01*
X-00847Y0001D01*
X-00837D01*
X-00827Y0D01*
X-01027D02*
X-01017Y0001D01*
X-01007D01*
X-01017Y0002D01*
X-01007Y0003D01*
X-01017D01*
X-01027Y0004D01*
X-01037Y0003D01*
X-01047D01*
X-01037Y0002D01*
X-01047Y0001D01*
X-01037D01*
X-01027Y0D01*
X-01127D02*
X-01117Y0001D01*
X-01107D01*
X-01117Y0002D01*
X-01107Y0003D01*
X-01117D01*
X-01127Y0004D01*
X-01137Y0003D01*
X-01147D01*
X-01137Y0002D01*
X-01147Y0001D01*
X-01137D01*
X-01127Y0D01*
X-01227D02*
X-01217Y0001D01*
X-01207D01*
X-01217Y0002D01*
X-01207Y0003D01*
X-01217D01*
X-01227Y0004D01*
X-01237Y0003D01*
X-01247D01*
X-01237Y0002D01*
X-01247Y0001D01*
X-01237D01*
X-01227Y0D01*
X-01527D02*
X-01517Y0001D01*
X-01507D01*
X-01517Y0002D01*
X-01507Y0003D01*
X-01517D01*
X-01527Y0004D01*
X-01537Y0003D01*
X-01547D01*
X-01537Y0002D01*
X-01547Y0001D01*
X-01537D01*
X-01527Y0D01*
X-0210208Y-0068008D02*
X-0212208Y-0064008D01*
X-0208208D01*
X-0210208Y-0068008D01*
Y-0033992D02*
X-0212208Y-0029992D01*
X-0208208D01*
X-0210208Y-0033992D01*
X-019772Y-0039622D02*
Y-0035622D01*
X-019372D01*
Y-0039622D01*
X-019772D01*
Y-0062378D02*
Y-0058378D01*
X-019372D01*
Y-0062378D01*
X-019772D01*
X-01312Y-00695D02*
Y-00705D01*
X-01292D01*
Y-00695D01*
X-01282D01*
Y-00675D01*
X-01292D01*
Y-00665D01*
X-01312D01*
Y-00675D01*
X-01322D01*
Y-00695D01*
X-01312D01*
X-0053472Y-0052224D02*
X-0052472Y-0050224D01*
X-0053472Y-0048224D01*
X-0051472Y-0049224D01*
X-0049472Y-0048224D01*
X-0050472Y-0050224D01*
X-0049472Y-0052224D01*
X-0051472Y-0051224D01*
X-0053472Y-0052224D01*
X-0049928D02*
X-0048928Y-0050224D01*
X-0049928Y-0048224D01*
X-0047928Y-0049224D01*
X-0045928Y-0048224D01*
X-0046928Y-0050224D01*
X-0045928Y-0052224D01*
X-0047928Y-0051224D01*
X-0049928Y-0052224D01*
Y-0042776D02*
X-0048928Y-0040776D01*
X-0049928Y-0038776D01*
X-0047928Y-0039776D01*
X-0045928Y-0038776D01*
X-0046928Y-0040776D01*
X-0045928Y-0042776D01*
X-0047928Y-0041776D01*
X-0049928Y-0042776D01*
X-0053472D02*
X-0052472Y-0040776D01*
X-0053472Y-0038776D01*
X-0051472Y-0039776D01*
X-0049472Y-0038776D01*
X-0050472Y-0040776D01*
X-0049472Y-0042776D01*
X-0051472Y-0041776D01*
X-0053472Y-0042776D01*
X-0056424Y-0045728D02*
X-0055424Y-0043728D01*
X-0056424Y-0041728D01*
X-0054424Y-0042728D01*
X-0052424Y-0041728D01*
X-0053424Y-0043728D01*
X-0052424Y-0045728D01*
X-0054424Y-0044728D01*
X-0056424Y-0045728D01*
Y-0049272D02*
X-0055424Y-0047272D01*
X-0056424Y-0045272D01*
X-0054424Y-0046272D01*
X-0052424Y-0045272D01*
X-0053424Y-0047272D01*
X-0052424Y-0049272D01*
X-0054424Y-0048272D01*
X-0056424Y-0049272D01*
X-0046976Y-0045728D02*
X-0045976Y-0043728D01*
X-0046976Y-0041728D01*
X-0044976Y-0042728D01*
X-0042976Y-0041728D01*
X-0043976Y-0043728D01*
X-0042976Y-0045728D01*
X-0044976Y-0044728D01*
X-0046976Y-0045728D01*
Y-0049272D02*
X-0045976Y-0047272D01*
X-0046976Y-0045272D01*
X-0044976Y-0046272D01*
X-0042976Y-0045272D01*
X-0043976Y-0047272D01*
X-0042976Y-0049272D01*
X-0044976Y-0048272D01*
X-0046976Y-0049272D01*
X-00517D02*
X-00507Y-0047272D01*
X-00517Y-0045272D01*
X-00497Y-0046272D01*
X-00477Y-0045272D01*
X-00487Y-0047272D01*
X-00477Y-0049272D01*
X-00497Y-0048272D01*
X-00517Y-0049272D01*
X-0053472Y-00475D02*
X-0052472Y-00455D01*
X-0053472Y-00435D01*
X-0051472Y-00445D01*
X-0049472Y-00435D01*
X-0050472Y-00455D01*
X-0049472Y-00475D01*
X-0051472Y-00465D01*
X-0053472Y-00475D01*
X-00517Y-0045728D02*
X-00507Y-0043728D01*
X-00517Y-0041728D01*
X-00497Y-0042728D01*
X-00477Y-0041728D01*
X-00487Y-0043728D01*
X-00477Y-0045728D01*
X-00497Y-0044728D01*
X-00517Y-0045728D01*
X-0049928Y-00475D02*
X-0048928Y-00455D01*
X-0049928Y-00435D01*
X-0047928Y-00445D01*
X-0045928Y-00435D01*
X-0046928Y-00455D01*
X-0045928Y-00475D01*
X-0047928Y-00465D01*
X-0049928Y-00475D01*
X-0219201Y-01014D02*
X-0217201Y-00994D01*
X-0215201Y-01014D01*
X-0217201Y-01034D01*
X-0219201Y-01014D01*
X-02192Y0D02*
X-02172Y0002D01*
X-02152Y0D01*
X-02172Y-0002D01*
X-02192Y0D01*
X-0002Y-01014D02*
X0Y-00994D01*
X0002Y-01014D01*
X0Y-01034D01*
X-0002Y-01014D01*
Y0D02*
X0Y0002D01*
X0002Y0D01*
X0Y-0002D01*
X-0002Y0D01*
X-01908Y-00981D02*
Y-00991D01*
X-01888D01*
Y-00981D01*
X-01878D01*
Y-00961D01*
X-01888D01*
Y-00951D01*
X-01908D01*
Y-00961D01*
X-01918D01*
Y-00981D01*
X-01908D01*
X-01557Y-00594D02*
Y-00604D01*
X-01537D01*
Y-00594D01*
X-01527D01*
Y-00574D01*
X-01537D01*
Y-00564D01*
X-01557D01*
Y-00574D01*
X-01567D01*
Y-00594D01*
X-01557D01*
X-01653Y-00591D02*
Y-00601D01*
X-01633D01*
Y-00591D01*
X-01623D01*
Y-00571D01*
X-01633D01*
Y-00561D01*
X-01653D01*
Y-00571D01*
X-01663D01*
Y-00591D01*
X-01653D01*
X-0160255Y-0064038D02*
Y-0065038D01*
X-0158255D01*
Y-0064038D01*
X-0157255D01*
Y-0062038D01*
X-0158255D01*
Y-0061038D01*
X-0160255D01*
Y-0062038D01*
X-0161255D01*
Y-0064038D01*
X-0160255D01*
X-01587Y-00543D02*
Y-00553D01*
X-01567D01*
Y-00543D01*
X-01557D01*
Y-00523D01*
X-01567D01*
Y-00513D01*
X-01587D01*
Y-00523D01*
X-01597D01*
Y-00543D01*
X-01587D01*
X-01722Y-00807D02*
Y-00817D01*
X-01702D01*
Y-00807D01*
X-01692D01*
Y-00787D01*
X-01702D01*
Y-00777D01*
X-01722D01*
Y-00787D01*
X-01732D01*
Y-00807D01*
X-01722D01*
X-0185956Y-0094242D02*
Y-0095242D01*
X-0183956D01*
Y-0094242D01*
X-0182956D01*
Y-0092242D01*
X-0183956D01*
Y-0091242D01*
X-0185956D01*
Y-0092242D01*
X-0186956D01*
Y-0094242D01*
X-0185956D01*
X-01692Y-00186D02*
Y-00196D01*
X-01672D01*
Y-00186D01*
X-01662D01*
Y-00166D01*
X-01672D01*
Y-00156D01*
X-01692D01*
Y-00166D01*
X-01702D01*
Y-00186D01*
X-01692D01*
X-01668Y-00063D02*
Y-00073D01*
X-01648D01*
Y-00063D01*
X-01638D01*
Y-00043D01*
X-01648D01*
Y-00033D01*
X-01668D01*
Y-00043D01*
X-01678D01*
Y-00063D01*
X-01668D01*
X-00354Y-00816D02*
Y-00826D01*
X-00334D01*
Y-00816D01*
X-00324D01*
Y-00796D01*
X-00334D01*
Y-00786D01*
X-00354D01*
Y-00796D01*
X-00364D01*
Y-00816D01*
X-00354D01*
X-00366Y-00735D02*
Y-00745D01*
X-00346D01*
Y-00735D01*
X-00336D01*
Y-00715D01*
X-00346D01*
Y-00705D01*
X-00366D01*
Y-00715D01*
X-00376D01*
Y-00735D01*
X-00366D01*
X-00372Y-00675D02*
Y-00685D01*
X-00352D01*
Y-00675D01*
X-00342D01*
Y-00655D01*
X-00352D01*
Y-00645D01*
X-00372D01*
Y-00655D01*
X-00382D01*
Y-00675D01*
X-00372D01*
X-01704Y-00642D02*
Y-00652D01*
X-01684D01*
Y-00642D01*
X-01674D01*
Y-00622D01*
X-01684D01*
Y-00612D01*
X-01704D01*
Y-00622D01*
X-01714D01*
Y-00642D01*
X-01704D01*
X-01722Y-00558D02*
Y-00568D01*
X-01702D01*
Y-00558D01*
X-01692D01*
Y-00538D01*
X-01702D01*
Y-00528D01*
X-01722D01*
Y-00538D01*
X-01732D01*
Y-00558D01*
X-01722D01*
X-01623Y-00654D02*
Y-00664D01*
X-01603D01*
Y-00654D01*
X-01593D01*
Y-00634D01*
X-01603D01*
Y-00624D01*
X-01623D01*
Y-00634D01*
X-01633D01*
Y-00654D01*
X-01623D01*
X-01905Y-00207D02*
Y-00217D01*
X-01885D01*
Y-00207D01*
X-01875D01*
Y-00187D01*
X-01885D01*
Y-00177D01*
X-01905D01*
Y-00187D01*
X-01915D01*
Y-00207D01*
X-01905D01*
X-0124391Y-0085218D02*
Y-0086218D01*
X-0122391D01*
Y-0085218D01*
X-0121391D01*
Y-0083218D01*
X-0122391D01*
Y-0082218D01*
X-0124391D01*
Y-0083218D01*
X-0125391D01*
Y-0085218D01*
X-0124391D01*
X-00807Y-00931D02*
Y-00941D01*
X-00787D01*
Y-00931D01*
X-00777D01*
Y-00911D01*
X-00787D01*
Y-00901D01*
X-00807D01*
Y-00911D01*
X-00817D01*
Y-00931D01*
X-00807D01*
X-0075385D02*
Y-00941D01*
X-0073385D01*
Y-00931D01*
X-0072385D01*
Y-00911D01*
X-0073385D01*
Y-00901D01*
X-0075385D01*
Y-00911D01*
X-0076385D01*
Y-00931D01*
X-0075385D01*
X-0027058Y-0023969D02*
X-0026058D01*
X-0025058Y-0022969D01*
X-0024058Y-0023969D01*
X-0023058D01*
Y-0022969D01*
X-0024058Y-0021969D01*
X-0023058Y-0020969D01*
Y-0019969D01*
X-0024058D01*
X-0025058Y-0020969D01*
X-0026058Y-0019969D01*
X-0027058D01*
Y-0020969D01*
X-0026058Y-0021969D01*
X-0027058Y-0022969D01*
Y-0023969D01*
X-00961Y-0025D02*
X-00951D01*
X-00941Y-0024D01*
X-00931Y-0025D01*
X-00921D01*
Y-0024D01*
X-00931Y-0023D01*
X-00921Y-0022D01*
Y-0021D01*
X-00931D01*
X-00941Y-0022D01*
X-00951Y-0021D01*
X-00961D01*
Y-0022D01*
X-00951Y-0023D01*
X-00961Y-0024D01*
Y-0025D01*
X-01134Y-00642D02*
Y-00652D01*
X-01114D01*
Y-00642D01*
X-01104D01*
Y-00622D01*
X-01114D01*
Y-00612D01*
X-01134D01*
Y-00622D01*
X-01144D01*
Y-00642D01*
X-01134D01*
X-00987Y-00486D02*
Y-00496D01*
X-00967D01*
Y-00486D01*
X-00957D01*
Y-00466D01*
X-00967D01*
Y-00456D01*
X-00987D01*
Y-00466D01*
X-00997D01*
Y-00486D01*
X-00987D01*
X-00982Y-0055D02*
Y-0056D01*
X-00962D01*
Y-0055D01*
X-00952D01*
Y-0053D01*
X-00962D01*
Y-0052D01*
X-00982D01*
Y-0053D01*
X-00992D01*
Y-0055D01*
X-00982D01*
Y-006D02*
Y-0061D01*
X-00962D01*
Y-006D01*
X-00952D01*
Y-0058D01*
X-00962D01*
Y-0057D01*
X-00982D01*
Y-0058D01*
X-00992D01*
Y-006D01*
X-00982D01*
Y-0065D02*
Y-0066D01*
X-00962D01*
Y-0065D01*
X-00952D01*
Y-0063D01*
X-00962D01*
Y-0062D01*
X-00982D01*
Y-0063D01*
X-00992D01*
Y-0065D01*
X-00982D01*
Y-0045D02*
Y-0046D01*
X-00962D01*
Y-0045D01*
X-00952D01*
Y-0043D01*
X-00962D01*
Y-0042D01*
X-00982D01*
Y-0043D01*
X-00992D01*
Y-0045D01*
X-00982D01*
X-01683Y-00648D02*
Y-00658D01*
X-01663D01*
Y-00648D01*
X-01653D01*
Y-00628D01*
X-01663D01*
Y-00618D01*
X-01683D01*
Y-00628D01*
X-01693D01*
Y-00648D01*
X-01683D01*
X-01971Y-00471D02*
Y-00481D01*
X-01951D01*
Y-00471D01*
X-01941D01*
Y-00451D01*
X-01951D01*
Y-00441D01*
X-01971D01*
Y-00451D01*
X-01981D01*
Y-00471D01*
X-01971D01*
Y-0051D02*
Y-0052D01*
X-01951D01*
Y-0051D01*
X-01941D01*
Y-0049D01*
X-01951D01*
Y-0048D01*
X-01971D01*
Y-0049D01*
X-01981D01*
Y-0051D01*
X-01971D01*
X-0085831Y-0074599D02*
Y-0075599D01*
X-0083831D01*
Y-0074599D01*
X-0082831D01*
Y-0072599D01*
X-0083831D01*
Y-0071599D01*
X-0085831D01*
Y-0072599D01*
X-0086831D01*
Y-0074599D01*
X-0085831D01*
X-00982Y-0035D02*
Y-0036D01*
X-00962D01*
Y-0035D01*
X-00952D01*
Y-0033D01*
X-00962D01*
Y-0032D01*
X-00982D01*
Y-0033D01*
X-00992D01*
Y-0035D01*
X-00982D01*
Y-004D02*
Y-0041D01*
X-00962D01*
Y-004D01*
X-00952D01*
Y-0038D01*
X-00962D01*
Y-0037D01*
X-00982D01*
Y-0038D01*
X-00992D01*
Y-004D01*
X-00982D01*
Y-007D02*
Y-0071D01*
X-00962D01*
Y-007D01*
X-00952D01*
Y-0068D01*
X-00962D01*
Y-0067D01*
X-00982D01*
Y-0068D01*
X-00992D01*
Y-007D01*
X-00982D01*
X-01382Y-00765D02*
Y-00775D01*
X-01362D01*
Y-00765D01*
X-01352D01*
Y-00745D01*
X-01362D01*
Y-00735D01*
X-01382D01*
Y-00745D01*
X-01392D01*
Y-00765D01*
X-01382D01*
X-0124313Y-0091537D02*
Y-0092537D01*
X-0122313D01*
Y-0091537D01*
X-0121313D01*
Y-0089537D01*
X-0122313D01*
Y-0088537D01*
X-0124313D01*
Y-0089537D01*
X-0125313D01*
Y-0091537D01*
X-0124313D01*
D67*
X-0191751Y-0066008D02*
G03*
X-0191751Y-0066008I-0002J0D01*
G01*
Y-0031992D02*
G03*
X-0191751Y-0031992I-0002J0D01*
G01*
M02*
